<svg clip-rule="evenodd" fill-rule="evenodd" stroke-linejoin="round" stroke-miterlimit="2" viewBox="0 0 100 100" xmlns="http://www.w3.org/2000/svg" xmlns:serif="http://www.serif.com/"><g id="Layer2"><path d="m22.013 37.672h-8.315c-2.204 0-4.291.989-5.686 2.695s-1.95 3.949-1.511 6.109c1.933 9.53 5.812 30.677 7.446 38.736.695 3.424 3.705 5.884 7.198 5.884h57.558c3.493 0 6.503-2.46 7.198-5.884 1.634-8.059 6.025-29.206 7.958-38.736.438-2.16-.117-4.403-1.511-6.109-1.395-1.706-3.482-2.695-5.686-2.695h-8.624l-9.758-22.634c-1.482-3.437-4.867-5.663-8.609-5.663-5.061 0-13.597 0-18.606 0-3.657 0-6.981 2.127-8.513 5.448zm6.112 20.029v13.151c0 1.725 1.4 3.125 3.125 3.125s3.125-1.4 3.125-3.125v-13.151c0-1.724-1.4-3.125-3.125-3.125s-3.125 1.401-3.125 3.125zm18.76 0v13.151c0 1.725 1.4 3.125 3.125 3.125s3.125-1.4 3.125-3.125v-13.151c0-1.724-1.4-3.125-3.125-3.125s-3.125 1.401-3.125 3.125zm18.74 0v13.151c0 1.725 1.4 3.125 3.125 3.125s3.125-1.4 3.125-3.125v-13.151c0-1.724-1.4-3.125-3.125-3.125s-3.125 1.401-3.125 3.125zm5.607-20.029-8.692-20.159c-.494-1.146-1.622-1.888-2.869-1.888h-18.606c-1.219 0-2.327.709-2.837 1.816l-9.332 20.231z"/></g></svg>