<svg height="511pt" viewBox="0 -7 511.99965 511" width="511pt" xmlns="http://www.w3.org/2000/svg"><path d="m460.121094 258.1875h-408.246094c-20.515625 0-37.148438-16.632812-37.148438-37.148438 0-20.515624 16.632813-37.144531 37.148438-37.144531h408.25c20.515625 0 37.144531 16.628907 37.144531 37.144531 0 20.515626-16.632812 37.148438-37.148437 37.148438zm0 0" fill="#f9c57e"/><path d="m460.121094 258.1875h-408.246094c-20.515625 0-37.148438-16.632812-37.148438-37.148438 0-20.515624 16.632813-37.144531 37.148438-37.144531h408.25c20.515625 0 37.144531 16.628907 37.144531 37.144531 0 20.515626-16.632812 37.148438-37.148437 37.148438zm0 0" fill="#f72c2c"/><path d="m497.265625 221.042969c0 10.257812-4.164063 19.542969-10.875 26.265625-6.722656 6.722656-16.007813 10.875-26.265625 10.875h-13.546875c8.191406-7.503906 13.320313-18.277344 13.320313-30.261719v-8.574219c0-15.121094-8.179688-28.328125-20.363282-35.453125h20.589844c20.507812 0 37.140625 16.632813 37.140625 37.148438zm0 0" fill="#e32929"/><path d="m28.28125 286.085938h455.433594v103.117187h-455.433594zm0 0" fill="#8e2d2a"/><path d="m439.535156 286.085938h44.179688v103.117187h-44.179688zm0 0" fill="#771f1f"/><path d="m503.894531 407.9375c4.019531-16.9375-8.808593-33.1875-26.277343-33.1875h-443.238282c-17.46875 0-30.296875 16.25-26.277344 33.1875 6.144532 25.890625 21.160157 60.464844 57.835938 78.914062 14.914062 7.507813 31.519531 11.074219 48.230469 11.074219h283.660156c16.710937 0 33.316406-3.566406 48.230469-11.074219 36.675781-18.453124 51.691406-53.023437 57.835937-78.914062zm0 0" fill="#f78e3c"/><path d="m503.894531 407.9375c-6.144531 25.894531-21.164062 60.464844-57.832031 78.914062-14.851562 7.476563-31.371094 11.042969-48.003906 11.074219 3.238281-1.472656 6.414062-3.144531 9.519531-5.039062 36.675781-22.253907 51.695313-63.957031 57.832031-95.1875 1.613282-8.191407.511719-16.238281-2.5-22.953125h14.710938c17.464844 0 30.292968 16.25 26.273437 33.191406zm0 0" fill="#e8782d"/><path d="m301.511719 279.070312h-178.515625l151.492187 135.410157c15.390625 13.757812 38.660157 13.757812 54.050781 0l151.492188-135.410157zm0 0" fill="#ffc143"/><path d="m480.042969 279.074219-151.496094 135.394531c-15.394531 13.757812-38.660156 13.757812-54.054687 0l-4.753907-4.25 146.707031-131.144531zm0 0" fill="#ffb509"/><path d="m13.1875 292.578125c0 7.746094 4.363281 14.964844 11.417969 18.164063 13.714843 6.21875 17.414062 22.804687 37.140625 22.804687 24.28125 0 24.28125-25.125 48.5625-25.125s24.28125 25.125 48.5625 25.125c24.277344 0 24.277344-25.125 48.554687-25.125 24.277344 0 24.277344 25.125 48.558594 25.125s24.28125-25.125 48.5625-25.125 24.28125 25.125 48.5625 25.125 24.28125-25.125 48.5625-25.125c24.285156 0 24.285156 25.125 48.570313 25.125 19.730468 0 23.429687-16.585937 37.148437-22.804687 7.054687-3.199219 11.421875-10.417969 11.421875-18.164063 0-20.132813-16.320312-36.453125-36.453125-36.453125h-412.722656c-20.132813 0-36.449219 16.320312-36.449219 36.453125zm0 0" fill="#80cf00"/><path d="m498.808594 292.574219c0 7.75-4.359375 14.964843-11.421875 18.171875-13.710938 6.21875-17.410157 22.800781-37.148438 22.800781-9.015625 0-14.691406-3.464844-19.492187-7.824219 5.921875-5.230468 10.457031-11.914062 18.105468-15.378906 7.050782-3.195312 11.40625-10.421875 11.40625-18.164062 0-10.070313-4.078124-19.179688-10.667968-25.777344-5.40625-5.398438-12.5-9.121094-20.425782-10.28125h33.191407c10.0625 0 19.183593 4.082031 25.78125 10.679687 6.589843 6.589844 10.671875 15.707031 10.671875 25.773438zm0 0" fill="#6db000"/><path d="m189.898438 183.890625h-119.125l101.089843 90.359375c10.269531 9.179688 25.796875 9.179688 36.066407 0l101.089843-90.359375zm0 0" fill="#ffc143"/><path d="m309.03125 183.894531-101.09375 90.347657c-10.273438 9.179687-25.796875 9.179687-36.070312 0l-3.171876-2.835938 97.894532-87.511719zm0 0" fill="#ffb509"/><path d="m366.644531 13.160156c-17.457031-5.894531-35.632812-9.355468-54.015625-10.664062-37.292968-2.660156-75.960937-2.660156-113.261718 0-18.382813 1.308594-36.558594 4.769531-54.019532 10.664062-98.789062 33.359375-132.65625 101.378906-144.265625 144.621094-5.28125 19.675781 9.421875 39.027344 29.796875 39.027344h450.242188c20.375 0 35.078125-19.351563 29.792968-39.027344-11.605468-43.242188-45.476562-111.261719-144.269531-144.621094zm0 0" fill="#f78e3c"/><path d="m481.117188 196.804688h-11.511719c3.328125-7.515626 4.398437-16.46875 2.289062-25.484376-11.605469-49.792968-45.476562-128.101562-144.269531-166.515624-.988281-.378907-1.984375-.761719-2.980469-1.128907 14.277344 1.757813 28.359375 4.871094 42 9.488281 98.796875 33.355469 132.667969 101.375 144.273438 144.617188 5.28125 19.675781-9.425781 39.023438-29.800781 39.023438zm0 0" fill="#e8782d"/><path d="m198.664062 47.132812c-.933593 3.941407-2.402343 7.875-4.964843 11.710938-1.375 2.058594-3 4.015625-4.8125 5.785156-10.304688 10.066406-24.429688 12.324219-31.542969 5.039063-7.113281-7.285157-4.527344-21.351563 5.777344-31.417969 3.4375-3.355469 7.5-6.003906 11.671875-7.589844 5.996093-2.28125 12.492187-2.753906 18.601562-3.335937 4.394531-.414063 7.589844 2.828125 7.105469 7.207031-.453125 4.136719-.839844 8.375-1.835938 12.601562zm0 0" fill="#f9efef"/><path d="m188.886719 64.628906c1.808593-1.765625 3.433593-3.722656 4.8125-5.785156 2.566406-3.832031 4.03125-7.769531 4.960937-11.707031 1.003906-4.234375 1.390625-8.46875 1.84375-12.601563.480469-4.382812-2.71875-7.628906-7.109375-7.210937-.757812.078125-1.527343.140625-2.300781.214843-.363281 3.375-.777344 6.804688-1.585938 10.226563-.929687 3.9375-2.394531 7.875-4.960937 11.707031-1.378906 2.0625-3.003906 4.019532-4.8125 5.785156-7.972656 7.785157-18.226563 10.902344-25.746094 8.539063.628907 2.230469 1.742188 4.21875 3.351563 5.867187 7.121094 7.289063 21.238281 5.03125 31.546875-5.035156zm0 0" fill="#efe2dd"/><path d="m331.863281 29.179688c3.945313.933593 7.878907 2.398437 11.710938 4.960937 2.058593 1.375 4.015625 3 5.785156 4.8125 10.066406 10.304687 12.324219 24.429687 5.039063 31.542969-7.285157 7.117187-21.351563 4.53125-31.417969-5.777344-3.355469-3.433594-6.003907-7.5-7.589844-11.667969-2.28125-6-2.753906-12.496093-3.332031-18.605469-.417969-4.390624 2.824218-7.585937 7.203125-7.105468 4.136719.453125 8.375.839844 12.601562 1.839844zm0 0" fill="#f9efef"/><path d="m349.359375 38.953125c-1.765625-1.808594-3.722656-3.433594-5.785156-4.8125-3.832031-2.566406-7.769531-4.03125-11.707031-4.960937-4.234376-1.003907-8.46875-1.386719-12.601563-1.84375-4.382813-.476563-7.628906 2.71875-7.210937 7.113281.078124.753906.140624 1.523437.214843 2.296875 3.375.367187 6.804688.777344 10.226563 1.585937 3.9375.929688 7.875 2.394531 11.707031 4.960938 2.0625 1.378906 4.019531 3.003906 5.785156 4.816406 7.789063 7.96875 10.902344 18.222656 8.539063 25.742187 2.230468-.628906 4.21875-1.738281 5.871094-3.351562 7.285156-7.117188 5.027343-21.238281-5.039063-31.546875zm0 0" fill="#efe2dd"/><path d="m268.210938 51.386719c2.265624 3.363281 4.15625 7.109375 5.234374 11.59375.578126 2.40625.914063 4.929687.980469 7.457031.402344 14.402344-7.523437 26.308594-17.703125 26.59375-10.179687.28125-18.753906-11.164062-19.15625-25.566406-.132812-4.800782.679688-9.582032 2.34375-13.722656 2.394532-5.953126 6.457032-11.046876 10.175782-15.925782 2.675781-3.507812 7.226562-3.65625 10.117187-.332031 2.730469 3.140625 5.582031 6.300781 8.007813 9.902344zm0 0" fill="#f9efef"/><path d="m274.429688 70.441406c-.070313-2.527344-.402344-5.050781-.984376-7.464844-1.074218-4.484374-2.972656-8.230468-5.230468-11.585937-2.429688-3.609375-5.28125-6.765625-8.007813-9.90625-2.894531-3.324219-7.449219-3.179687-10.121093.332031-.457032.605469-.933594 1.214844-1.398438 1.832032 2.226562 2.558593 4.464844 5.1875 6.433594 8.105468 2.257812 3.355469 4.160156 7.101563 5.230468 11.589844.582032 2.410156.914063 4.933594.984376 7.460938.308593 11.140624-4.359376 20.785156-11.199219 24.703124 2.066406 1.050782 4.28125 1.585938 6.585937 1.519532 10.183594-.28125 18.105469-12.183594 17.707032-26.585938zm0 0" fill="#efe2dd"/></svg>