<svg height="511pt" viewBox="-8 0 511 511.99955" width="511pt" xmlns="http://www.w3.org/2000/svg" xmlns:xlink="http://www.w3.org/1999/xlink"><linearGradient id="a" gradientTransform="matrix(.985138 .103735 0 .985138 -8.359546 -54.710146)" gradientUnits="userSpaceOnUse" x1="254.8256" x2="367.6325" y1="333.4128" y2="419.6768"><stop offset="0" stop-color="#fff465"/><stop offset="1" stop-color="#ffe600"/></linearGradient><linearGradient id="b"><stop offset="0" stop-color="#ffe600" stop-opacity="0"/><stop offset="1" stop-color="#f59500"/></linearGradient><linearGradient id="c" gradientTransform="matrix(.985138 .103735 0 .985138 -8.359546 -54.710146)" gradientUnits="userSpaceOnUse" x1="276.437" x2="376.9451" xlink:href="#b" y1="356.9548" y2="462.1017"/><linearGradient id="d" gradientUnits="userSpaceOnUse" x1="324.164399089" x2="82.4756663728" xlink:href="#b" y1="22.3610563792" y2="608.416795679"/><linearGradient id="e" gradientUnits="userSpaceOnUse" x1="367.7029670542" x2="299.641851424" xlink:href="#b" y1="198.7935583788" y2="118.5176181728"/><radialGradient id="f" cx="261.7684" cy="158.3727" gradientTransform="matrix(.961298 .21545 -.0953614 .425481 12.985811 32.23333)" gradientUnits="userSpaceOnUse" r="81.5268"><stop offset="0" stop-color="#f59500"/><stop offset=".3714" stop-color="#f59700" stop-opacity=".627451"/><stop offset=".5604" stop-color="#f69f00" stop-opacity=".439216"/><stop offset=".7082" stop-color="#f8ac00" stop-opacity=".290196"/><stop offset=".8347" stop-color="#fabf00" stop-opacity=".164706"/><stop offset=".9464" stop-color="#fdd700" stop-opacity=".054902"/><stop offset="1" stop-color="#ffe600" stop-opacity="0"/></radialGradient><radialGradient id="g" cx="250.4993259458" cy="34.5023896602" gradientUnits="userSpaceOnUse" r="119.3596156214"><stop offset="0" stop-color="#ff4c54"/><stop offset=".4745" stop-color="#fd4c54"/><stop offset=".6554" stop-color="#f64a52"/><stop offset=".786" stop-color="#ea484f"/><stop offset=".8925" stop-color="#d9444b"/><stop offset=".9833" stop-color="#c34046"/><stop offset="1" stop-color="#be3f45"/></radialGradient><linearGradient id="h"><stop offset="0" stop-color="#be3f45" stop-opacity="0"/><stop offset="1" stop-color="#be3f45"/></linearGradient><linearGradient id="i" gradientTransform="matrix(.696591 .696591 -.696591 .696591 -1497.239228 -512.662505)" gradientUnits="userSpaceOnUse" x1="1685.3329" x2="1663.6902" xlink:href="#h" y1="-859.4985" y2="-873.6191"/><linearGradient id="j" gradientTransform="matrix(.696591 .696591 -.696591 .696591 -1497.239228 -512.662505)" gradientUnits="userSpaceOnUse" x1="1715.5146" x2="1693.8718" xlink:href="#h" y1="-859.4985" y2="-873.6191"/><linearGradient id="k" gradientTransform="matrix(.696591 .696591 -.696591 .696591 -1497.239228 -512.662505)" gradientUnits="userSpaceOnUse" x1="1775.8779" x2="1754.2351" xlink:href="#h" y1="-859.4985" y2="-873.6191"/><linearGradient id="l" gradientTransform="matrix(.696591 .696591 -.696591 .696591 -1497.239228 -512.662505)" gradientUnits="userSpaceOnUse" x1="1745.6963" x2="1724.0535" xlink:href="#h" y1="-859.4985" y2="-873.6191"/><linearGradient id="m" gradientTransform="matrix(.696591 .696591 -.696591 .696591 -1497.239228 -512.662505)" gradientUnits="userSpaceOnUse" x1="1700.4237" x2="1678.781" xlink:href="#h" y1="-831.0003" y2="-845.121"/><linearGradient id="n" gradientTransform="matrix(.696591 .696591 -.696591 .696591 -1497.239228 -512.662505)" gradientUnits="userSpaceOnUse" x1="1730.6055" x2="1708.9626" xlink:href="#h" y1="-831.0003" y2="-845.121"/><linearGradient id="o" gradientTransform="matrix(.696591 .696591 -.696591 .696591 -1497.239228 -512.662505)" gradientUnits="userSpaceOnUse" x1="1760.7871" x2="1739.1443" xlink:href="#h" y1="-831.0003" y2="-845.121"/><linearGradient id="p" gradientTransform="matrix(.696591 .696591 -.696591 .696591 -1497.239228 -512.662505)" gradientUnits="userSpaceOnUse" x1="1700.4237" x2="1678.781" xlink:href="#h" y1="-781.8111" y2="-795.9317"/><linearGradient id="q" gradientUnits="userSpaceOnUse" x1="256.1807153056" x2="243.227431285" xlink:href="#h" y1="142.182012126" y2="133.7309072792"/><linearGradient id="r" gradientUnits="userSpaceOnUse" x1="276.5646982326" x2="269.350335631" xlink:href="#h" y1="154.8091169548" y2="150.1022261046"/><linearGradient id="s" gradientTransform="matrix(.696591 .696591 -.696591 .696591 -1497.239228 -512.662505)" gradientUnits="userSpaceOnUse" x1="1685.3329" x2="1663.6902" xlink:href="#h" y1="-806.6323" y2="-820.7529"/><linearGradient id="t" gradientTransform="matrix(.696591 .696591 -.696591 .696591 -1497.239228 -512.662505)" gradientUnits="userSpaceOnUse" x1="1715.5146" x2="1693.8718" xlink:href="#h" y1="-806.6323" y2="-820.7529"/><linearGradient id="u" gradientUnits="userSpaceOnUse" x1="304.5105019338" x2="291.5333775736" xlink:href="#h" y1="157.2231976238" y2="148.756330569"/><linearGradient id="v" gradientTransform="matrix(.696591 .696591 -.696591 .696591 -1497.239228 -512.662505)" gradientUnits="userSpaceOnUse" x1="1745.6963" x2="1724.0535" xlink:href="#h" y1="-806.6323" y2="-820.7529"/><linearGradient id="w"><stop offset="0" stop-color="#ffb92d"/><stop offset="1" stop-color="#f59500"/></linearGradient><linearGradient id="x" gradientTransform="matrix(.696591 .696591 -.696591 .696591 -1497.239228 -512.662505)" gradientUnits="userSpaceOnUse" x1="1671.2925" x2="1676.6356" xlink:href="#w" y1="-869.4177" y2="-869.4177"/><linearGradient id="y" gradientTransform="matrix(.696591 .696591 -.696591 .696591 -1497.239228 -512.662505)" gradientUnits="userSpaceOnUse" x1="1701.4741" x2="1706.8173" xlink:href="#w" y1="-869.4177" y2="-869.4177"/><linearGradient id="z" gradientTransform="matrix(.696591 .696591 -.696591 .696591 -1497.239228 -512.662505)" gradientUnits="userSpaceOnUse" x1="1731.6559" x2="1736.999" xlink:href="#w" y1="-869.4177" y2="-869.4177"/><linearGradient id="A" gradientTransform="matrix(.696591 .696591 -.696591 .696591 -1497.239228 -512.662505)" gradientUnits="userSpaceOnUse" x1="1761.8375" x2="1767.1807" xlink:href="#w" y1="-869.4177" y2="-869.4177"/><linearGradient id="B" gradientTransform="matrix(.696591 .696591 -.696591 .696591 -1497.239228 -512.662505)" gradientUnits="userSpaceOnUse" x1="1671.2925" x2="1676.6356" xlink:href="#w" y1="-816.5515" y2="-816.5515"/><linearGradient id="C" gradientTransform="matrix(.696591 .696591 -.696591 .696591 -1497.239228 -512.662505)" gradientUnits="userSpaceOnUse" x1="1701.4741" x2="1706.8173" xlink:href="#w" y1="-816.5515" y2="-816.5515"/><linearGradient id="D" gradientTransform="matrix(.696591 .696591 -.696591 .696591 -1497.239228 -512.662505)" gradientUnits="userSpaceOnUse" x1="1731.6559" x2="1736.999" xlink:href="#w" y1="-816.5515" y2="-816.5515"/><linearGradient id="E" gradientTransform="matrix(.696591 .696591 -.696591 .696591 -1497.239228 -512.662505)" gradientUnits="userSpaceOnUse" x1="1761.8375" x2="1767.1807" xlink:href="#w" y1="-816.5515" y2="-816.5515"/><linearGradient id="F" gradientTransform="matrix(.696591 .696591 -.696591 .696591 -1497.239228 -512.662505)" gradientUnits="userSpaceOnUse" x1="1686.3833" x2="1691.7264" xlink:href="#w" y1="-840.9195" y2="-840.9195"/><linearGradient id="G" gradientTransform="matrix(.696591 .696591 -.696591 .696591 -1497.239228 -512.662505)" gradientUnits="userSpaceOnUse" x1="1716.5649" x2="1721.9081" xlink:href="#w" y1="-840.9195" y2="-840.9195"/><linearGradient id="H" gradientTransform="matrix(.696591 .696591 -.696591 .696591 -1497.239228 -512.662505)" gradientUnits="userSpaceOnUse" x1="1746.7467" x2="1752.0898" xlink:href="#w" y1="-840.9195" y2="-840.9195"/><linearGradient id="I" gradientTransform="matrix(.696591 .696591 -.696591 .696591 -1497.239228 -512.662505)" gradientUnits="userSpaceOnUse" x1="1686.3833" x2="1691.7264" xlink:href="#w" y1="-791.7303" y2="-791.7303"/><linearGradient id="J" gradientTransform="matrix(.696591 .696591 -.696591 .696591 -1497.239228 -512.662505)" gradientUnits="userSpaceOnUse" x1="1716.5649" x2="1721.9081" xlink:href="#w" y1="-791.7303" y2="-791.7303"/><linearGradient id="K" gradientUnits="userSpaceOnUse" x1="269.2179330838" x2="277.7339585248" xlink:href="#w" y1="153.1547747114" y2="153.1547747114"/><linearGradient id="L"><stop offset="0" stop-color="#cfffb4"/><stop offset="1" stop-color="#8ee388"/></linearGradient><linearGradient id="M" gradientTransform="matrix(.696591 .696591 -.696591 .696591 454.936077 -34.235229)" gradientUnits="userSpaceOnUse" x1="-25.5912" x2="-25.5912" xlink:href="#L" y1="136.2924" y2="146.6193"/><linearGradient id="N" gradientUnits="userSpaceOnUse" x1="322.271456422" x2="270.362072357" xlink:href="#h" y1="114.792220312" y2="62.8827377332"/><linearGradient id="O" gradientTransform="matrix(.696591 .696591 -.696591 .696591 454.936077 -34.235229)" gradientUnits="userSpaceOnUse" x1="8.5862" x2="-32.8236" xlink:href="#h" y1="196.3359" y2="154.9261"/><linearGradient id="P" gradientTransform="matrix(.696591 .696591 -.696591 .696591 454.936077 -34.235229)" gradientUnits="userSpaceOnUse" x1="-57.5707" x2="-40.051" xlink:href="#L" y1="142.4283" y2="180.437"/><linearGradient id="Q"><stop offset="0" stop-color="#53d6be" stop-opacity="0"/><stop offset="1" stop-color="#4e6d79"/></linearGradient><linearGradient id="R" gradientTransform="matrix(.696591 .696591 -.696591 .696591 454.936077 -34.235229)" gradientUnits="userSpaceOnUse" x1="-58.0085" x2="-49.9281" xlink:href="#Q" y1="148.1831" y2="87.3881"/><linearGradient id="S" gradientTransform="matrix(-.696591 -.696591 -.696591 .696591 -2.479776 -491.651082)" gradientUnits="userSpaceOnUse" x1="-663.0307" x2="-645.511" xlink:href="#L" y1="142.4283" y2="180.437"/><linearGradient id="T" gradientTransform="matrix(-.696591 -.696591 -.696591 .696591 -2.479776 -491.651082)" gradientUnits="userSpaceOnUse" x1="-663.4685" x2="-655.3882" xlink:href="#Q" y1="148.1831" y2="87.3881"/><linearGradient id="U" gradientTransform="matrix(.696591 .696591 -.696591 .696591 454.936077 -34.235229)" gradientUnits="userSpaceOnUse" x1="-25.7536" x2="-12.6093" xlink:href="#L" y1="162.2905" y2="63.3949"/><linearGradient id="V" gradientTransform="matrix(.696591 .696591 -.696591 .696591 454.936077 -34.235229)" gradientUnits="userSpaceOnUse" x1="-18.9586" x2="-41.429" xlink:href="#Q" y1="165.3009" y2="165.3009"/><linearGradient id="W" gradientUnits="userSpaceOnUse" x1="286.4512476592" x2="22.4776097312" xlink:href="#b" y1="438.6546630774" y2="295.354716349"/><linearGradient id="X" gradientUnits="userSpaceOnUse" x1="167.5369144138" x2="167.5369144138" y1="325.0407663272" y2="502.3626509132"><stop offset="0" stop-color="#f8ebe1"/><stop offset="1" stop-color="#fbd1a2"/></linearGradient><path d="m461.324219 357.652344c21.050781-18.125 33.457031-45.34375 33.457031-84.089844 0-98.152344-79.570312-186.105469-177.726562-196.445312-49.769532-5.246094-94.75 10.484374-127.011719 40.050781-.917969.800781-135.214844 120.949219-136.113281 121.769531-32.964844 28.789062-53.429688 71.617188-53.429688 121.386719 0 98.152343 79.570312 139.132812 177.726562 149.472656 61.105469 6.4375 115.003907-.523437 146.992188-30.375zm0 0" fill="url(#a)"/><path d="m178.222656 509.796875c61.109375 6.4375 115.007813-.523437 146.992188-30.375l136.113281-121.769531c21.046875-18.125 33.453125-45.34375 33.453125-84.089844 0-59.296875-29.046875-114.859375-73.675781-151.847656l-378.253907 338.40625c32.597657 28.890625 81.144532 43.960937 135.371094 49.675781zm0 0" fill="url(#c)"/><path d="m355.949219 397.769531c0 98.15625-79.570313 122.367188-177.726563 112.027344-98.152344-10.339844-177.722656-51.316406-177.722656-149.472656s79.570312-169.339844 177.726562-159c98.152344 10.339843 177.722657 98.292969 177.722657 196.445312zm0 0" fill="url(#d)"/><path d="m494.777344 273.558594c0 29.0625-6.976563 51.632812-19.339844 68.746094l-95.105469-95.105469c-19.042969-33.28125-47.472656-61.207031-81.378906-79.453125-.050781-.027344-.101563-.058594-.160156-.089844-.984375-.558594-2.007813-1.113281-3.074219-1.664062-.914062-.480469-1.851562-.953126-2.816406-1.429688-1.585938-.777344-3.230469-1.542969-4.933594-2.292969-3.253906-1.449219-6.710938-2.835937-10.34375-4.167969-1.164062-.421874-2.335938-.835937-3.527344-1.25-1.753906-.601562-3.546875-1.183593-5.378906-1.753906-4.128906-1.289062-8.425781-2.492187-12.867188-3.585937-.777343-.1875-1.566406-.375-2.355468-.5625-2.214844-.523438-4.421875-1.003907-6.597656-1.4375-17.992188-3.65625-34.5-4.667969-46.726563-3.28125-.039063-.394531-.070313-.789063-.089844-1.191407-.589843-8.027343.140625-16.765624 1.824219-25.691406.90625-4.828125 2.105469-9.703125 3.535156-14.550781 30.511719-21.449219 69.335938-32.136719 111.617188-27.683594 98.148437 10.34375 177.71875 98.296875 177.71875 196.445313zm0 0" fill="url(#e)"/><path d="m330.4375 176.671875c-1.566406 6.699219-6.898438 12.066406-14.886719 15.898437.925781-1.042968 1.546875-2.207031 1.84375-3.457031 1.289063-5.496093-3.871093-12.007812-13.449219-18.324219 0 0-.007812 0-.019531 0-.71875-.480468-1.476562-.964843-2.253906-1.4375-1.84375-1.132812-3.832031-2.253906-5.953125-3.359374-.914062-.480469-1.851562-.953126-2.816406-1.429688-4.609375-2.265625-9.734375-4.429688-15.277344-6.460938-1.164062-.421874-2.335938-.835937-3.527344-1.25-1.753906-.601562-3.546875-1.183593-5.378906-1.753906-4.128906-1.289062-8.425781-2.492187-12.867188-3.585937-.777343-.1875-1.566406-.375-2.355468-.5625-2.214844-.523438-4.421875-1.003907-6.597656-1.4375-17.992188-3.65625-34.5-4.667969-46.726563-3.28125-11.773437 1.332031-19.554687 4.898437-20.875 10.503906-.296875 1.238281-.257813 2.539063.089844 3.878906-5.441407-6.964843-7.8125-14.136719-6.246094-20.816406 2.351563-10.046875 13.160156-17.121094 28.765625-20.449219 7.113281-1.519531 15.210938-2.257812 23.96875-2.140625 3.152344.03125 6.390625.179688 9.703125.445313 5.851563.460937 11.910156 1.289062 18.097656 2.492187 2.214844.421875 4.460938.894531 6.707031 1.429688.957032.226562 1.910157.453125 2.847657.699219 4.5 1.121093 8.855469 2.414062 13.042969 3.832031 1.890624.640625 3.742187 1.308593 5.566406 2h.007812c.867188.332031 1.707032.660156 2.554688 1.003906 2.945312 1.183594 5.78125 2.421875 8.5 3.722656 3.261718 1.558594 6.363281 3.191407 9.28125 4.898438 2.175781 1.269531 4.234375 2.570312 6.207031 3.910156h.007813c7.851562 5.339844 13.96875 11.160156 17.839843 17.050781v.011719c3.972657 6.058594 5.546875 12.195313 4.199219 17.96875zm0 0" fill="url(#f)"/><path d="m341.410156 146.753906c-.382812.382813-.777344.769532-1.179687 1.140625-.269531.257813-.542969.511719-.820313.769531-1.78125 1.636719-3.761718 3.28125-5.910156 4.925782-.75.570312-1.515625 1.144531-2.304688 1.714844-.050781.027343-.097656.058593-.136718.097656-.445313.316406-.898438.640625-1.351563.957031-.460937.324219-.925781.640625-1.390625.953125-.472656.328125-.945312.640625-1.425781.957031-.21875.148438-.433594.285157-.652344.433594-.265625.167969-.53125.34375-.796875.511719-.609375.394531-1.222656.777344-1.832031 1.164062-.898437.539063-1.804687 1.09375-2.730469 1.644532-.519531.316406-1.050781.621093-1.574218.925781-1.597657.914062-3.230469 1.820312-4.90625 2.707031-2.238282 1.183594-4.53125 2.347656-6.875 3.46875l-.011719.011719c-1.183594.570312-2.363281 1.121093-3.566407 1.652343 0 0-.007812 0-.019531 0-.71875-.480468-1.476562-.964843-2.253906-1.4375-1.84375-1.132812-3.832031-2.253906-5.953125-3.359374-.914062-.480469-1.851562-.953126-2.816406-1.429688-4.609375-2.265625-9.734375-4.429688-15.277344-6.460938-1.164062-.421874-2.335938-.835937-3.527344-1.25-1.753906-.601562-3.546875-1.183593-5.378906-1.753906-4.128906-1.289062-8.425781-2.492187-12.867188-3.585937-.777343-.1875-1.566406-.375-2.355468-.5625-2.214844-.523438-4.421875-1.003907-6.597656-1.4375-17.992188-3.65625-34.5-4.667969-46.726563-3.28125-.75-8.351563-.039063-17.515625 1.734375-26.882813 5.574219-29.515625 21.730469-61.050781 36.390625-75.710937 14.371094-14.371094 34.597656-19.808594 54.605469-16.65625.097656.019531.199218.027343.296875.046875.855469.140625 1.722656.296875 2.578125.464844.484375.097656.957031.195312 1.441406.304687.472656.097656.953125.207031 1.425781.324219 1.441407.335937 2.867188.730468 4.285157 1.164062.472656.148438.949218.296875 1.421874.453125.472657.148438.945313.304688 1.40625.472657 1.65625.570312 3.292969 1.203124 4.917969 1.902343.382813.15625.765625.324219 1.140625.5.367188.160157.730469.328125 1.09375.503907.40625.175781.808594.375 1.210938.570312.917968.445312 1.824218.90625 2.730468 1.390625.421876.226563.835938.453125 1.261719.6875.039063.023437.078125.050781.128907.070313.429687.246093.863281.503906 1.289062.75.453125.265624.886719.53125 1.328125.796874.886719.542969 1.765625 1.105469 2.632813 1.683594.433593.285156.867187.582032 1.289062.886719.34375.238281.691406.484375 1.023438.730469 1.804687 1.289062 3.558593 2.660156 5.261718 4.128906.355469.304688.710938.609375 1.0625.925781.011719 0 .023438.007813.023438.019531.324218.273438.636718.558594.953125.855469.355469.316407.710937.640625 1.054687.976563.550782.519531 1.101563 1.054687 1.644532 1.605468.019531.007813.03125.019532.03125.019532s.007812.007812.019531.027344c1.199219 1.195312 2.34375 2.414062 3.4375 3.65625 10.234375 11.554687 16.511719 25.199218 18.738281 38.960937 3.238281 20.097656-2.179688 40.453125-16.621094 54.894531zm0 0" fill="url(#g)"/><path d="m279.179688 44.542969c.039062-.566407-.082032-1.035157-.398438-1.351563-1.074219-1.074218-3.941406.046875-6.402344 2.507813-1.90625 1.90625-3.003906 4.054687-2.902344 5.425781v18.699219c-.039062.566406.082032 1.039062.394532 1.351562 1.078125 1.078125 3.945312-.042969 6.40625-2.503906 1.90625-1.90625 3.003906-4.054687 2.902344-5.425781zm0 0" fill="url(#i)"/><path d="m300.203125 65.566406c.039063-.566406-.082031-1.035156-.398437-1.351562-1.074219-1.074219-3.941407.046875-6.402344 2.507812-1.90625 1.90625-3.003906 4.054688-2.902344 5.425782v18.699218c-.039062.566406.082031 1.039063.398438 1.351563 1.074218 1.078125 3.941406-.042969 6.402343-2.503907 1.90625-1.90625 3.003907-4.054687 2.902344-5.425781zm0 0" fill="url(#j)"/><path d="m342.253906 107.617188c.039063-.566407-.082031-1.039063-.398437-1.351563-1.078125-1.078125-3.945313.042969-6.402344 2.503906-1.90625 1.90625-3.003906 4.054688-2.90625 5.425781v18.703126c-.039063.566406.082031 1.035156.398437 1.351562 1.078126 1.078125 3.945313-.046875 6.402344-2.507812 1.90625-1.90625 3.003906-4.050782 2.90625-5.425782zm0 0" fill="url(#k)"/><path d="m321.226562 86.589844c.042969-.566406-.078124-1.035156-.394531-1.351563-1.078125-1.074219-3.945312.046875-6.402343 2.507813-1.90625 1.90625-3.003907 4.054687-2.90625 5.425781v18.703125c-.039063.5625.082031 1.035156.398437 1.351562 1.078125 1.074219 3.941406-.046874 6.402344-2.507812 1.90625-1.90625 3.003906-4.054688 2.902343-5.425781zm0 0" fill="url(#l)"/><path d="m269.839844 74.90625c.039062-.566406-.082032-1.035156-.398438-1.351562-1.074218-1.074219-3.941406.046874-6.402344 2.507812-1.90625 1.90625-3.003906 4.054688-2.902343 5.425781v18.699219c-.039063.566406.082031 1.039062.394531 1.351562 1.078125 1.078126 3.945312-.042968 6.40625-2.503906 1.90625-1.90625 3.003906-4.054687 2.902344-5.425781zm0 0" fill="url(#m)"/><path d="m290.863281 95.933594c.039063-.566406-.082031-1.039063-.394531-1.351563-1.078125-1.078125-3.945312.042969-6.40625 2.503907-1.90625 1.90625-3.003906 4.054687-2.902344 5.425781v18.703125c-.039062.5625.082032 1.035156.398438 1.351562 1.074218 1.074219 3.941406-.046875 6.402344-2.507812 1.90625-1.90625 3.003906-4.054688 2.902343-5.425782zm0 0" fill="url(#n)"/><path d="m311.886719 116.957031c.039062-.566406-.082031-1.039062-.394531-1.351562-1.078126-1.078125-3.945313.042969-6.40625 2.503906-1.90625 1.90625-3 4.054687-2.902344 5.425781v18.703125c-.039063.5625.082031 1.035157.398437 1.351563 1.078125 1.074218 3.941407-.046875 6.402344-2.507813 1.90625-1.90625 3.003906-4.054687 2.902344-5.425781zm0 0" fill="url(#o)"/><path d="m235.574219 109.171875c.039062-.566406-.082031-1.039063-.394531-1.351563-1.078126-1.078124-3.945313.046876-6.40625 2.507813-1.90625 1.90625-3.003907 4.050781-2.902344 5.425781v18.699219c-.039063.566406.082031 1.035156.398437 1.351563 1.074219 1.078124 3.941407-.042969 6.402344-2.503907 1.90625-1.90625 3.003906-4.054687 2.902344-5.429687zm0 0" fill="url(#p)"/><path d="m256.601562 130.253906v18.648438c.046876.707031-.21875 1.625-.75 2.609375-.777343-.1875-1.566406-.375-2.355468-.5625-2.214844-.523438-4.421875-1.003907-6.597656-1.4375v-12.726563c-.109376-1.371094.992187-3.519531 2.90625-5.429687.453124-.453125.925781-.867188 1.398437-1.230469.117187-.089844.226563-.179688.34375-.257812.234375-.167969.472656-.324219.699219-.460938.550781-.328125 1.082031-.574219 1.574218-.742188 1.027344-.34375 1.894532-.3125 2.386719.179688.109375.109375.1875.226562.246094.363281.136719.285157.1875.652344.148437 1.046875zm0 0" fill="url(#q)"/><path d="m277.625 151.285156v6.816406c-1.164062-.421874-2.335938-.835937-3.527344-1.25-1.753906-.601562-3.546875-1.183593-5.378906-1.753906.5-.886718 1.210938-1.832031 2.105469-2.71875 1.332031-1.339844 2.789062-2.285156 4.019531-2.691406 1.027344-.34375 1.894531-.3125 2.386719.179688.105469.105468.1875.226562.246093.363281.136719.285156.1875.648437.148438 1.054687zm0 0" fill="url(#r)"/><path d="m242.351562 81.371094c.042969-.566406-.082031-1.039063-.394531-1.351563-1.078125-1.078125-3.945312.042969-6.402343 2.503907-1.90625 1.90625-3.003907 4.054687-2.90625 5.425781v18.703125c-.039063.5625.082031 1.035156.398437 1.351562 1.078125 1.074219 3.941406-.046875 6.402344-2.507812 1.90625-1.90625 3.003906-4.054688 2.902343-5.425782zm0 0" fill="url(#s)"/><path d="m263.378906 102.394531c.039063-.566406-.082031-1.039062-.398437-1.351562-1.078125-1.078125-3.945313.046875-6.402344 2.507812-1.90625 1.90625-3.003906 4.050781-2.90625 5.425781v18.699219c-.039063.566407.082031 1.035157.398437 1.351563 1.078126 1.078125 3.945313-.046875 6.402344-2.507813 1.90625-1.90625 3.003906-4.050781 2.90625-5.425781zm0 0" fill="url(#t)"/><path d="m305.421875 144.507812v18.636719c.101563 1.371094-.992187 3.519531-2.894531 5.429688-.285156.277343-.570313.542969-.855469.777343-1.84375-1.132812-3.832031-2.253906-5.953125-3.359374v-14.972657c-.046875-.632812.160156-1.429687.59375-2.296875.167969-.335937.363281-.679687.589844-1.023437.464844-.699219 1.042968-1.417969 1.722656-2.097657 1.203125-1.203124 2.503906-2.089843 3.644531-2.542968 1.195313-.492188 2.207031-.523438 2.761719.03125.144531.144531.246094.324218.3125.53125.089844.253906.109375.550781.078125.886718zm0 0" fill="url(#u)"/><path d="m284.402344 123.417969c.039062-.566407-.082032-1.039063-.398438-1.351563-1.074218-1.078125-3.941406.046875-6.402344 2.507813-1.90625 1.90625-3.003906 4.050781-2.902343 5.425781v18.699219c-.039063.566406.082031 1.035156.394531 1.351562 1.078125 1.078125 3.945312-.042969 6.40625-2.503906 1.90625-1.90625 3.003906-4.054687 2.902344-5.429687zm0 0" fill="url(#v)"/><path d="m276.277344 49.597656c-2.460938 2.457032-5.328125 3.582032-6.40625 2.503906-1.074219-1.074218.046875-3.941406 2.507812-6.402343 2.460938-2.460938 5.328125-3.582031 6.402344-2.507813 1.078125 1.078125-.042969 3.945313-2.503906 6.40625zm0 0" fill="url(#x)"/><path d="m297.300781 70.621094c-2.460937 2.457031-5.328125 3.582031-6.402343 2.503906-1.078126-1.074219.042968-3.941406 2.503906-6.402344 2.460937-2.460937 5.328125-3.582031 6.40625-2.507812 1.074218 1.078125-.046875 3.945312-2.507813 6.40625zm0 0" fill="url(#y)"/><path d="m318.324219 91.644531c-2.460938 2.460938-5.328125 3.582031-6.402344 2.507813-1.078125-1.078125.046875-3.945313 2.507813-6.40625 2.457031-2.457032 5.324218-3.582032 6.402343-2.503906 1.074219 1.074218-.046875 3.941406-2.507812 6.402343zm0 0" fill="url(#z)"/><path d="m339.347656 112.667969c-2.457031 2.460937-5.328125 3.582031-6.402344 2.507812-1.078124-1.078125.042969-3.945312 2.503907-6.40625 2.460937-2.457031 5.328125-3.582031 6.40625-2.503906 1.078125 1.074219-.046875 3.941406-2.507813 6.402344zm0 0" fill="url(#A)"/><path d="m239.449219 86.421875c-2.460938 2.460937-5.328125 3.582031-6.402344 2.507813-1.078125-1.078126.046875-3.945313 2.507813-6.40625 2.457031-2.457032 5.324218-3.582032 6.402343-2.503907 1.074219 1.074219-.046875 3.941407-2.507812 6.402344zm0 0" fill="url(#B)"/><path d="m260.476562 107.445312c-2.460937 2.460938-5.328124 3.582032-6.40625 2.507813-1.074218-1.078125.046876-3.945313 2.507813-6.402344 2.460937-2.460937 5.328125-3.582031 6.402344-2.507812 1.078125 1.074219-.046875 3.941406-2.503907 6.402343zm0 0" fill="url(#C)"/><path d="m281.5 128.472656c-2.460938 2.457032-5.328125 3.582032-6.40625 2.503906-1.074219-1.074218.046875-3.941406 2.507812-6.402343 2.460938-2.460938 5.328126-3.582031 6.402344-2.507813 1.078125 1.078125-.042968 3.945313-2.503906 6.40625zm0 0" fill="url(#D)"/><path d="m302.523438 149.496094c-2.460938 2.457031-5.328126 3.582031-6.402344 2.503906-1.078125-1.074219.042968-3.941406 2.503906-6.402344 2.460938-2.460937 5.328125-3.582031 6.40625-2.507812 1.074219 1.078125-.046875 3.945312-2.507812 6.40625zm0 0" fill="url(#E)"/><path d="m266.9375 79.960938c-2.460938 2.457031-5.328125 3.582031-6.40625 2.503906-1.074219-1.074219.046875-3.941406 2.507812-6.402344 2.460938-2.460938 5.328126-3.582031 6.402344-2.507812 1.078125 1.078124-.042968 3.945312-2.503906 6.40625zm0 0" fill="url(#F)"/><path d="m287.960938 100.984375c-2.460938 2.460937-5.328126 3.582031-6.402344 2.503906-1.078125-1.074219.042968-3.941406 2.503906-6.402343 2.460938-2.460938 5.328125-3.582032 6.40625-2.503907 1.074219 1.074219-.046875 3.941407-2.507812 6.402344zm0 0" fill="url(#G)"/><path d="m308.984375 122.007812c-2.457031 2.460938-5.324219 3.582032-6.402344 2.507813-1.078125-1.078125.046875-3.945313 2.507813-6.40625 2.457031-2.457031 5.328125-3.582031 6.402344-2.503906 1.074218 1.074219-.046876 3.941406-2.507813 6.402343zm0 0" fill="url(#H)"/><path d="m232.671875 114.222656c-2.460937 2.460938-5.328125 3.582032-6.402344 2.507813-1.078125-1.078125.042969-3.945313 2.503907-6.402344 2.460937-2.460937 5.328124-3.582031 6.40625-2.507813 1.074218 1.078126-.046876 3.945313-2.507813 6.402344zm0 0" fill="url(#I)"/><path d="m253.695312 135.25c-2.457031 2.457031-5.324218 3.582031-6.402343 2.503906-1.074219-1.074218.046875-3.941406 2.507812-6.402344 2.457031-2.460937 5.328125-3.582031 6.402344-2.507812 1.074219 1.078125-.046875 3.945312-2.507813 6.40625zm0 0" fill="url(#J)"/><path d="m277.625 151.285156c-.128906 1.367188-1.195312 3.28125-2.90625 4.984375-.207031.207031-.414062.402344-.621094.582031-1.753906-.601562-3.546875-1.183593-5.378906-1.753906.5-.886718 1.210938-1.832031 2.105469-2.71875 1.332031-1.339844 2.789062-2.285156 4.019531-2.691406 1.027344-.34375 1.894531-.3125 2.386719.179688.105469.105468.1875.226562.246093.363281.136719.285156.1875.648437.148438 1.054687zm0 0" fill="url(#K)"/><path d="m337.113281 55.078125-7.144531-7.140625 7.679688-7.679688c1.972656-1.972656 5.171874-1.972656 7.144531 0 1.972656 1.972657 1.972656 5.167969 0 7.144532zm0 0" fill="url(#M)"/><path d="m341.410156 146.753906c-.382812.382813-.777344.769532-1.179687 1.140625-.269531.257813-.542969.511719-.820313.769531-1.78125 1.636719-3.761718 3.28125-5.910156 4.925782-.75.570312-1.515625 1.144531-2.304688 1.714844-.050781.027343-.097656.058593-.136718.097656-.445313.316406-.898438.640625-1.351563.957031-.460937.324219-.925781.640625-1.390625.953125-.472656.328125-.945312.640625-1.425781.957031-.207031.136719-.425781.285157-.652344.421875-.265625.179688-.53125.347656-.796875.523438-.609375.394531-1.222656.777344-1.832031 1.164062-.898437.539063-1.804687 1.09375-2.730469 1.644532-.519531.316406-1.050781.621093-1.574218.925781-1.597657.914062-3.230469 1.820312-4.90625 2.707031-2.238282 1.183594-4.53125 2.347656-6.875 3.46875l-.011719.011719c-1.183594.550781-2.375 1.113281-3.585938 1.652343-.71875-.480468-1.476562-.964843-2.253906-1.4375-1.84375-1.132812-3.832031-2.253906-5.953125-3.359374-.914062-.480469-1.851562-.953126-2.816406-1.429688v-137.582031c.097656.019531.199218.027343.296875.046875.855469.140625 1.722656.296875 2.578125.464844.484375.097656.957031.195312 1.441406.304687.472656.097656.953125.207031 1.425781.324219 1.441407.347656 2.859375.730468 4.285157 1.164062.472656.148438.949218.296875 1.421874.453125.472657.148438.945313.304688 1.40625.472657 1.65625.570312 3.292969 1.203124 4.917969 1.902343.382813.15625.765625.324219 1.140625.5.367188.160157.730469.328125 1.09375.503907.40625.175781.808594.375 1.210938.570312.917968.445312 1.824218.90625 2.730468 1.390625.421876.226563.835938.453125 1.261719.6875.039063.023437.078125.050781.128907.070313.429687.246093.863281.503906 1.289062.75.453125.265624.886719.53125 1.328125.796874.886719.542969 1.765625 1.105469 2.632813 1.683594.433593.285156.867187.582032 1.289062.886719.34375.238281.691406.484375 1.023438.730469 1.804687 1.289062 3.558593 2.660156 5.261718 4.128906.355469.304688.710938.609375 1.0625.925781.011719 0 .023438.007813.023438.019531.324218.273438.636718.558594.953125.855469.355469.316407.710937.640625 1.054687.976563.550782.519531 1.101563 1.054687 1.644532 1.605468.019531.007813.03125.019532.03125.019532s.007812.007812.019531.027344c1.199219 1.195312 2.34375 2.414062 3.4375 3.65625 10.234375 11.554687 16.511719 25.199218 18.738281 38.960937 3.238281 20.097656-2.179688 40.453125-16.621094 54.894531zm0 0" fill="url(#N)"/><path d="m341.640625 66.335938c.292969-8.035157-5.808594-17.125-5.808594-17.125s-29.515625-19.808594-29.183593 13.691406v57.363281c-.042969 4.148437.394531 9.164063 1.4375 15.203125 27.636718 4.785156 33.855468-3.171875 33.554687-11.773438zm0 0" fill="url(#O)"/><path d="m335.835938 49.210938s1.046874-35.308594-38.679688-49.210938c0 0-29.570312 35.859375 38.679688 49.210938zm0 0" fill="url(#P)"/><path d="m335.835938 49.210938s-14.015626-31.074219-38.679688-49.210938c0 0-29.570312 35.859375 38.679688 49.210938zm0 0" fill="url(#R)"/><path d="m335.835938 49.210938s35.308593-1.046876 49.210937 38.679687c0 0-35.855469 29.570313-49.210937-38.679687zm0 0" fill="url(#S)"/><path d="m335.835938 49.210938s31.074218 14.015624 49.210937 38.679687c0 0-35.855469 29.570313-49.210937-38.679687zm0 0" fill="url(#T)"/><path d="m335.835938 49.210938s-36.832032-24.71875-27.75 27.75c52.46875 9.082031 27.75-27.75 27.75-27.75zm0 0" fill="url(#U)"/><path d="m335.835938 49.210938-27.75 27.75c52.46875 9.082031 27.75-27.75 27.75-27.75zm0 0" fill="url(#V)"/><path d="m179.558594 509.796875c-50.679688-4.261719-137.609375-50.425781-137.609375-114.835937 0-106.273438 74.292969-142.765626 140.699219-141.515626 82.4375 1.554688 171.042968 103.566407 106.144531 184.652344-33.34375 41.660156-114.308594 50.121094-159.347657 8.140625-27.4375-25.570312-34.570312-71.527343-16.570312-98.988281 43.488281-66.335938 132.144531-29.851562 125.289062 18.660156-.839843 5.953125-2.605468 10.691406-5.046874 14.417969-7.597657 11.59375-25.316407 2.074219-20.464844-10.914063.671875-1.808593 1.171875-3.8125 1.460937-6.035156 4.03125-30.941406-55.101562-41.703125-73.914062-14.796875s-5.375 69.957031 30.910156 79.371094c36.285156 9.417969 88.542969-2.246094 99.601563-33.050781 15.019531-41.828125-5.988282-111.941406-88.058594-115.675782-66.351563-3.019531-118.628906 44.105469-118.628906 115.734376-.003907 64.410156 64.855468 110.574218 115.535156 114.835937zm0 0" fill="url(#W)"/><path d="m170.480469 509.796875c-50.011719-4.441406-135.796875-52.542969-135.796875-119.65625 0-110.738281 73.316406-148.761719 138.847656-147.457031 81.351562 1.621094 168.789062 107.914062 104.742188 192.40625-32.902344 43.410156-112.800782 52.222656-157.246094 8.484375-27.074219-26.644531-34.113282-74.535157-16.347656-103.148438 42.914062-69.121093 130.398437-31.101562 123.636718 19.441407-.832031 6.207031-2.574218 11.140624-4.980468 15.023437-7.5 12.082031-24.984376 2.167969-20.199219-11.371094.667969-1.882812 1.15625-3.96875 1.441406-6.285156 3.980469-32.242187-54.371094-43.457031-72.9375-15.421875-18.566406 28.039062-5.304687 72.894531 30.5 82.707031 35.808594 9.8125 87.378906-2.34375 98.292969-34.4375 14.816406-43.585937-5.914063-116.644531-86.902344-120.535156-65.476562-3.144531-117.066406 45.957031-117.066406 120.59375 0 67.113281 64.003906 115.214844 114.015625 119.65625zm0 0" fill="url(#X)"/></svg>