<svg id="Table" viewBox="0 0 64 64" xmlns="http://www.w3.org/2000/svg"><path d="m39 13c-.55 0-1 .45-1 1v2c0 .55.45 1 1 1s1-.45 1-1v-2c0-.55-.45-1-1-1z" fill="#741d0a"/><path d="m57.97 19.93-.43-4.03c-.05-.51-.48-.89-.99-.89h-5.1c-.51 0-.94.39-.99.89l-.43 4.03c-.15 1.41.28 2.79 1.17 3.78.51.56 1.13.94 1.8 1.13v4.16c0 .55.45 1 1 1s1-.45 1-1v-4.16c.67-.2 1.3-.57 1.8-1.13.89-.99 1.32-2.37 1.17-3.78z" fill="#f1f2f2"/><path d="m13.54 15.89c-.05-.51-.48-.89-.99-.89h-5.1c-.51 0-.94.39-.99.89l-.43 4.03c-.15 1.41.28 2.79 1.17 3.78.51.56 1.13.94 1.8 1.13v4.16c0 .55.45 1 1 1s1-.45 1-1v-4.16c.67-.2 1.3-.57 1.8-1.13.89-.99 1.32-2.37 1.17-3.78z" fill="#f1f2f2"/><path d="m23 10.79v-3.79h-4v3.79c0 .79-.23 1.56-.67 2.22l-.66.98c-.44.66-.67 1.43-.67 2.22v12.79h8v-12.79c0-.79-.23-1.56-.67-2.22l-.66-.98c-.44-.66-.67-1.43-.67-2.22z" fill="#f28b2e"/><path d="m20 3h2c.55 0 1 .45 1 1v3h-4v-3c0-.55.45-1 1-1z" fill="#741d0a"/><path d="m17 18h8v6h-8z" fill="#f25836"/><path d="m61 45v4c-4.84 0-4.84 2-9.67 2s-4.84-2-9.67-2-4.83 2-9.67 2-4.83-2-9.66-2-4.84 2-9.67 2-4.83-2-9.66-2v-4c4.83 0 4.83 2 9.66 2s4.83-2 9.67-2 4.83 2 9.66 2 4.84-2 9.67-2 4.83 2 9.67 2 4.83-2 9.67-2z" fill="#f25836"/><path d="m61 32v13c-4.84 0-4.84 2-9.67 2s-4.84-2-9.67-2-4.83 2-9.67 2-4.83-2-9.66-2-4.84 2-9.67 2-4.83-2-9.66-2v-13c0-1.66 1.34-3 3-3h52c1.66 0 3 1.34 3 3z" fill="#f1b441"/><path d="m30 25h18c.55 0 1 .45 1 1v3h-20v-3c0-.55.45-1 1-1z" fill="#f28b2e"/><path d="m39 16c-4.97 0-9 4.03-9 9h18c0-4.97-4.03-9-9-9z" fill="#f25836"/><g fill="#741d0a"><path d="m7 49.67v10.33c0 .55.45 1 1 1h2c.55 0 1-.45 1-1v-9.1z"/><path d="m53 50.9v9.1c0 .55.45 1 1 1h2c.55 0 1-.45 1-1v-10.34z"/></g></svg>