<svg id="Capa_1" enable-background="new 0 0 512 512" height="512" viewBox="0 0 512 512" width="512" xmlns="http://www.w3.org/2000/svg" xmlns:xlink="http://www.w3.org/1999/xlink"><linearGradient id="lg1"><stop offset="0" stop-color="#d7d1eb"/><stop offset="1" stop-color="#f2effa"/></linearGradient><linearGradient id="SVGID_1_" gradientUnits="userSpaceOnUse" x1="150.923" x2="304.194" xlink:href="#lg1" y1="335.506" y2="335.506"/><linearGradient id="SVGID_00000011741595943596475830000004528849316959132061_" gradientUnits="userSpaceOnUse" x1="125.284" x2="278.428" y1="304.447" y2="304.447"><stop offset="0" stop-color="#ab2c37"/><stop offset="1" stop-color="#ff4757"/></linearGradient><linearGradient id="SVGID_00000142171234412538904220000004915972261570395577_" gradientUnits="userSpaceOnUse" x1="164.891" x2="296.969" y1="389.599" y2="389.599"><stop offset=".0128" stop-color="#ffa538"/><stop offset=".3612" stop-color="#fdb63b"/><stop offset="1" stop-color="#f7e041"/></linearGradient><linearGradient id="SVGID_00000042729100360231158670000006422762426504405135_" gradientUnits="userSpaceOnUse" x1="75.184" x2="263.113" xlink:href="#lg1" y1="220.606" y2="220.606"/><linearGradient id="SVGID_00000066497914382272570510000017589041746944255402_" gradientUnits="userSpaceOnUse" x1="-1.115" x2="333.809" y1="151.711" y2="151.711"><stop offset="0" stop-color="#f2effa"/><stop offset="1" stop-color="#fff"/></linearGradient><linearGradient id="SVGID_00000146460891522575166710000007711046712851168158_" gradientUnits="userSpaceOnUse" x1="312.012" x2="47.692" xlink:href="#lg1" y1="151.711" y2="151.711"/><linearGradient id="lg2"><stop offset="0" stop-color="#e37a34"/><stop offset="1" stop-color="#ffa538"/></linearGradient><linearGradient id="SVGID_00000052815715085472193870000017513017715162314920_" gradientUnits="userSpaceOnUse" x1="236.587" x2="304.369" xlink:href="#lg2" y1="94.716" y2="94.716"/><linearGradient id="SVGID_00000160178341579495102090000007111533470637942435_" gradientUnits="userSpaceOnUse" x1="246.355" x2="232.34" xlink:href="#lg2" y1="108.737" y2="63.889"/><linearGradient id="lg3"><stop offset="0" stop-color="#8b451c"/><stop offset="1" stop-color="#8b451c" stop-opacity="0"/></linearGradient><linearGradient id="SVGID_00000019651310146595196510000009597481969949493691_" gradientUnits="userSpaceOnUse" x1="301.41" x2="235.138" xlink:href="#lg3" y1="110.843" y2="77.585"/><linearGradient id="SVGID_00000059989297548060223440000002153382322883236273_" gradientUnits="userSpaceOnUse" x1="424.524" x2="139.349" y1="501.183" y2="7.245"><stop offset="0" stop-color="#ff4757"/><stop offset="1" stop-color="#ff7a85"/></linearGradient><linearGradient id="lg4"><stop offset="0" stop-color="#ba5c25"/><stop offset="1" stop-color="#e37a34"/></linearGradient><linearGradient id="SVGID_00000124130595937253334550000018168998683102351518_" gradientUnits="userSpaceOnUse" x1="225.875" x2="164.215" xlink:href="#lg4" y1="160.658" y2="66.469"/><linearGradient id="SVGID_00000049197289769871071630000003207786211475413127_" gradientUnits="userSpaceOnUse" x1="69.406" x2="185.036" xlink:href="#lg3" y1="163.442" y2="163.442"/><linearGradient id="SVGID_00000088831402523846822780000000364375873411506565_" gradientUnits="userSpaceOnUse" x1="212.554" x2="191.191" xlink:href="#lg3" y1="185.224" y2="110.455"/><linearGradient id="SVGID_00000166655770233740579640000005679885655357077644_" gradientUnits="userSpaceOnUse" x1="264.876" x2="314.63" xlink:href="#lg4" y1="181.314" y2="76.767"/><linearGradient id="SVGID_00000044149611170967910000000017492141020109988001_" gradientUnits="userSpaceOnUse" x1="293.518" x2="258.561" xlink:href="#lg3" y1="205.009" y2="127.812"/><linearGradient id="SVGID_00000027564629913536766180000002345661467236818602_" gradientUnits="userSpaceOnUse" x1="-8.625" x2="210.321" xlink:href="#lg2" y1="170.562" y2="170.562"/><linearGradient id="SVGID_00000152236633425633273110000005908510023826576824_" gradientUnits="userSpaceOnUse" x1="229.813" x2="206.751" xlink:href="#lg3" y1="242.362" y2="201.579"/><linearGradient id="SVGID_00000138567723852378512850000005825345829797011860_" gradientTransform="matrix(-.96 -.28 .28 -.96 305.992 575.27)" gradientUnits="userSpaceOnUse" x1="11.015" x2="241.647" xlink:href="#lg2" y1="445.149" y2="445.149"/><linearGradient id="SVGID_00000087372814792623043660000010112890655943461821_" gradientUnits="userSpaceOnUse" x1="316.502" x2="366.854" xlink:href="#lg3" y1="200.075" y2="132.66"/><linearGradient id="SVGID_00000059994131379581196600000017652658302546503095_" gradientTransform="matrix(.008 1 1 -.008 -88.171 77.628)" gradientUnits="userSpaceOnUse" x1="397.576" x2="322.807" xlink:href="#lg2" y1="513.988" y2="441.161"/><linearGradient id="SVGID_00000130642773849720452360000006055236592159720107_" gradientUnits="userSpaceOnUse" x1="292.072" x2="290.316" xlink:href="#lg3" y1="501.349" y2="499.639"/><linearGradient id="SVGID_00000093135139750751750580000007863950415971214993_" gradientUnits="userSpaceOnUse" x1="257.767" x2="436.975" xlink:href="#lg2" y1="187.131" y2="187.131"/><g><path d="m413.782 184.356-329.623 25.205 34.633 221.409c3.117 13.964 13.378 26.985 31.03 37.177 47.487 27.416 130.434 23.978 185.266-7.68 26.751-15.445 41.862-34.753 44.816-53.662z" fill="url(#SVGID_1_)"/><path d="m385.868 366.842 27.789-182.476-329.349 25.183 28.556 182.558c22.81 32.527 203.068 62.309 273.004-25.265z" fill="url(#SVGID_00000011741595943596475830000004528849316959132061_)"/><path d="m391.404 328.87c-3.214 20.57-19.652 41.573-48.752 58.374-59.649 34.438-149.88 38.179-201.538 8.354-19.202-11.086-30.365-25.251-33.755-40.442l5.505 36.951c3.259 14.6 13.987 28.214 32.443 38.87 49.649 28.665 136.374 25.07 193.704-8.029 27.969-16.148 43.768-36.335 46.857-56.105z" fill="url(#SVGID_00000142171234412538904220000004915972261570395577_)"/><g><path d="m416.419 192.752.009-.001v-55.579l-334.914 28.98v54.854c-.001.128-.001.256 0 .383v.282h.006c.186 22.031 13.626 43.042 40.865 58.768 60.546 34.956 166.303 30.572 236.216-9.792 38.594-22.282 58.187-50.871 57.818-77.895z" fill="url(#SVGID_00000042729100360231158670000006422762426504405135_)"/><path d="m358.599 215.005c-69.912 40.364-175.67 44.748-236.216 9.792s-52.953-96.015 16.96-136.379c69.912-40.364 175.67-44.748 236.215-9.792 60.546 34.956 52.953 96.015-16.959 136.379z" fill="url(#SVGID_00000066497914382272570510000017589041746944255402_)"/></g><path d="m352.922 211.649c-66.206 38.224-166.356 42.375-223.691 9.272s-50.145-90.924 16.06-129.148c66.206-38.224 166.356-42.375 223.691-9.272 57.336 33.102 50.146 90.924-16.06 129.148z" fill="url(#SVGID_00000146460891522575166710000007711046712851168158_)"/><path d="m214.326 119.852 67.782-10.312-19.401-39.96-2.214 2.501-2.541-.488-2.711-1.088-2.053 2.359-2.265 1.059-2.557-.087-2.371.662-2.075 1.559-2.49.287-2.362.689-2.341.764-2.688-.002-1.928 1.743-2.725.047-2.061 1.433-1.439 2.535-2.057 1.326-2.931-.116-1.608 2.071-1.392.74z" fill="url(#SVGID_00000052815715085472193870000017513017715162314920_)"/><path d="m214.326 119.852 67.782-10.312-19.401-39.96-2.214 2.501-2.541-.488-2.711-1.088-2.053 2.359-2.265 1.059-2.557-.087-2.371.662-2.075 1.559-2.49.287-2.362.689-2.341.764-2.688-.002-1.928 1.743-2.725.047-2.061 1.433-1.439 2.535-2.057 1.326-2.931-.116-1.608 2.071-1.392.74z" fill="url(#SVGID_00000160178341579495102090000007111533470637942435_)"/><path d="m260.493 72.081-2.541-.488-2.711-1.088-2.053 2.359-2.265 1.059-2.557-.087-2.371.662-2.075 1.559-2.49.287-.934.273 1.26.112.627 2.812 1.428 1.929 1.614 1.773 2.143 1.433.065 2.849 1.655 1.79 2.463 1.381.016 2.737 1.236 2.072.695 2.336 2.423 1.558-.154 2.71.227 2.517 1.262 2.094.439 2.417 1.353 2.072 2.283 1.462 20.577-3.131-19.401-39.96z" fill="url(#SVGID_00000019651310146595196510000009597481969949493691_)"/><ellipse cx="339.756" cy="356.761" fill="#fff" rx="56.647" ry="32.047" transform="matrix(.392 -.92 .92 .392 -121.552 529.699)"/><path d="m361.362 326.712c-6.08-4.294-15.755 1.385-21.749 12.837-5.994-4.531-15.668.961-21.748 12.276-6.272 11.673-6.124 25.22.033 29.875l16.463 12.446c2.901 2.193 7.603-.522 10.504-6.064l16.463-31.456c6.158-11.764 6.306-25.483.034-29.914z" fill="url(#SVGID_00000059989297548060223440000002153382322883236273_)"/><path d="m218.98 116.518-.854 2.324-1.102 2.243-.274 2.424-.969 2.249-.887 2.263-.129 2.492-.501 2.393-.382 2.444-1.059 2.213-1.877 1.899-.364 2.462-.656 2.362-1.034 2.207-1.336 2.065.9 3.138-2.129 1.686-1.57 1.923-.783 2.362-1.303 2.109-.594 2.672-2.608 1.102-1.799 1.702-.999 2.424-2.856.668-1.631 1.825-.713 2.826-1.606 1.93-2.613.77-1.395 2.194-2.592.712-2.053 1.359-2.095 1.293-2.323.939-1.586 2.055-2.109 1.269-2.488.596-1.902 1.623-1.351 2.821-2.904-.328-2.579.206-1.477 3.016-2.412.72-2.855-.838-2.49.113-2.276.989-2.398.49-2.477-.216-2.373 1.084-2.456-.711-2.419-.129-2.528.693-2.305-1.11-2.313-.809-2.892 1.656-1.972-2.207-2.272-.9-2.878.81-1.607-2.687-2.693.097-2.116-1.284-2.831.1-1.325-2.711-2.837-.074-1.73-1.889-1.219-2.5-2.048-1.312-3.087-.169-.646-2.938-2.716-.777-2.05-1.53-.69-2.651-.908-2.366-1.3-2.05-2.145-1.607-1.34-2.124.725-2.957-2-1.886-.076-2.523.084-2.48-.805-2.331-1.563-2.394.025-2.528 1.913-2.328-.364-2.513 1.377-2.198 1.063-2.192.168-2.478.7-2.335.508-2.436 1.428-1.991.459-2.6 2.627-1.135 1.264-2.065 1.826-1.606.603-2.749 1.696-1.777 1.689-1.791 3.265.035 1.842-1.532 1.719-1.697 1.98-1.369 1.17-2.522 2.048-1.32 2.791-.173.969-2.997 2.532-.539 2.59-.392 2.21-1.009 1.149-2.913 1.992-1.446 3.16.747 1.296-2.763 2.343-.772 2.591-.263 2.232-.971 1.99-1.469 1.511-2.485 3.286 1.239 1.828-1.832 2.406-.601 1.374-2.835 2.822.306 1.805-1.908 1.911-1.674 2.766.195 1.73-2.062 2.778.211 2.154-1.146 2.636-.126 1.718-2.059 2.354-.733 2.352-.744 2.454-.576 2.044-1.383 1.907-1.605 1.208-2.757 2.689-.222 1.675-1.839 2.819-.228 1.385-2.277 2.074-1.296 2.587-.613.862-2.925 1.95-1.459 2.757-.44 1.88-1.572 1.706-1.78 1.555-1.945 2.958-.327 1.301-2.237 1.228-2.281 2.231-1.19 1.292-2.176 2.243-1.21 1.823-1.645 1.648-1.814 1.017-2.38 1.733-1.721 1.327-2.067 1.872-1.614 2.449-1.184 1.3-2.099.726-2.505.928-2.329 2.978-.907 1.256-2.115-.699-3.346 2.137-1.449 1.265-2.044 1.305-2.022 1.019-2.26 3.129-.53 1.071-2.211.677-2.746 2.076-1.408 2.194-1.233 2.86.675 2.064-2.409 2.638.625 1.852 1.9 1.804 1.567 1.399 1.936 1.426 1.92 1.654 1.736 1.278 2.032 1.495 1.863.811 2.335 1.254 1.998 1.64 1.764 1.024 2.126 1.385 1.969.86 2.22 1.426 2.149-1.759 2.601 1.602 2.327-1.995 2.068 1.634 3.167-3.486.256-.549 3.452-2.829-.247-2.312.65-2.446.14-1.961 2.021-2.637-.556-2.409.428-1.565 2.653-2.417.321-2.186.938-2.943.065-1.522 2.087-.527 3.041-2.418.919-2.912.234-.346 3.415-3.34-.177-.615 2.899-1.555 1.807-2.959.681-.235 2.872-1.151 2.107-1.356 1.977-1.925 1.713.325 2.831-1.393 2-2.251 1.706.359 2.713-.94 2.222-.368 2.409-2.187 1.875.524 2.664.12 2.523-.963 2.248-.103 2.455-1.056 2.238-2.333 1.992-.317 2.42.216 2.515 1.302 2.695-2.584 2.02-.401 2.405z" fill="url(#SVGID_00000124130595937253334550000018168998683102351518_)"/><path d="m126.232 193.175 1.972 2.207 2.892-1.656 2.313.809 2.305 1.11 2.528-.693 2.419.129 2.456.711 2.373-1.084 2.477.216 2.398-.49 2.276-.989 2.49-.114 2.855.839 2.412-.72 1.477-3.016 2.579-.206 2.903.328 1.352-2.821 1.902-1.623 2.488-.596 2.109-1.269 1.586-2.055 2.324-.939 2.094-1.293 2.053-1.359 2.592-.712 1.394-2.194 2.614-.77 1.606-1.93.713-2.826 1.631-1.825 2.856-.668.999-2.424 1.799-1.702.32-.136-1.637-.969-2.253-.85-1.745-2.164-2.307-.785-2.749.507-1.666-2.673-2.586.09-2.608.245-2.39-.444-1.819-2.548-2.283-.921-2.885 1.489-1.925-2.368-2.461-.182-2.578.372-2.4-.402-2.287-.944-2.067-2.046-2.888 1.998-2.217-1.336h-2.48l-2.019-2.419-2.665.98-2.212-1.415-2.26-1.161-2.636.857-2.177-1.582-2.646.878-2.367-.592-2.588.516-2.165-1.582-2.461-.142-2.462-.152-2.521.035-2.317-.848-2.239-1.096-1.84-2.383-2.663.436-2.07-1.38-2.79.461-1.895-1.874-2.326-.756-2.658.031-1.545-2.629-2.244-.945-2.782.241-2.204-1.071-1.269-.799-.496 2.378-.7 2.335-.169 2.478-1.062 2.192-1.377 2.198.364 2.513-1.913 2.328-.025 2.528 1.563 2.394.805 2.331-.084 2.48.076 2.523 2 1.886-.725 2.957 1.34 2.124 2.145 1.607 1.3 2.05.908 2.366.69 2.651 2.05 1.529 2.716.778.646 2.938 3.087.169 2.048 1.312 1.219 2.5 1.73 1.889 2.837.074 1.325 2.711 2.832-.1 2.115 1.284 2.693-.097 1.607 2.687 2.878-.81z" fill="url(#SVGID_00000049197289769871071630000003207786211475413127_)"/><path d="m218.178 113.93.251-1.505-.764-.137-2.302.796-1.735 2.173-2.248.861-2.072 1.241-2.154 1.051-3.163-.808-2.066 1.34-2.069 1.324-1.238 2.528-2.154 1.127-1.717 1.706-2.822.48-1.062 2.417-1.859 1.596-1.072 2.245-1.233 2.103-.752 2.368-1.552 1.878-1.858 1.808-.243 2.527-2.411 1.809-.623 2.45.951 2.696.23 2.456-.671 2.389-.523 2.468 1.495 2.307-1.406 2.701.799 2.381 1.702 2.07.777 2.3.322 2.513.041 2.74 1.63 1.972 1.658.945.986-1.551 2.614-.77 1.606-1.93.713-2.826 1.631-1.825 2.856-.668.999-2.424 1.799-1.702 2.608-1.102.594-2.672 1.302-2.109.784-2.362 1.57-1.923 2.129-1.686-.9-3.138 1.336-2.065 1.034-2.207.656-2.362.364-2.462 1.877-1.899 1.059-2.213.382-2.444.501-2.393.129-2.492.887-2.263.969-2.249.274-2.424 1.102-2.243.854-2.324z" fill="url(#SVGID_00000088831402523846822780000000364375873411506565_)"/><path d="m330.531 139.909-1.379 2.056-1.603 1.917-.841 2.29-1.475 1.956-1.398 1.988-.716 2.39-1.054 2.206-.951 2.284-1.553 1.899-2.274 1.399-.937 2.306-1.197 2.138-1.528 1.9-1.788 1.689.131 3.262-2.468 1.133-1.982 1.496-1.321 2.109-1.765 1.74-1.211 2.454-2.795.453-2.152 1.227-1.545 2.118-2.933-.028-2.016 1.386-1.364 2.577-2.017 1.493-2.722.129-1.875 1.8-2.687.078-2.317.833-2.341.76-2.48.361-2.027 1.62-2.35.733-2.559-.011-2.233 1.126-1.981 2.42-2.743-1.007-2.554-.412-2.15 2.58-2.515.128-2.574-1.492-2.446-.48-2.446.421-2.445-.092-2.356-.797-2.562.49-2.218-1.273-2.319-.699-2.62.074-1.976-1.625-2.056-1.334-3.202.922-1.392-2.61-1.994-1.414-2.988.105-.924-2.992-2.639-.544-1.751-1.749-2.774-.574-.644-2.947-2.739-.746-1.233-2.245-.591-2.718-1.678-1.76-2.959-.896.069-3.008-2.455-1.399-1.629-1.971-.041-2.74-.322-2.513-.777-2.3-1.703-2.07-.798-2.382 1.406-2.7-1.496-2.307.524-2.468.67-2.389-.23-2.456-.95-2.696.623-2.45 2.411-1.809.243-2.527 1.858-1.809 1.552-1.878.751-2.367 1.234-2.103 1.071-2.245 1.86-1.596 1.062-2.417 2.822-.48 1.716-1.706 2.155-1.128 1.238-2.527 2.069-1.325 2.065-1.339 3.164.808 2.153-1.051 2.072-1.241 2.249-.861 1.734-2.173 2.303-.796 2.751.493 1.653-2.681 2.587.077 2.609.233 2.387-.457 1.806-2.557 2.279-.932 2.893 1.474 1.913-2.377 2.46-.195 2.58.36 2.398-.414 2.281-.956 2.058-2.056 2.898 1.984 2.21-1.347 2.48-.013 2.007-2.428 2.669.966 2.206-1.426 2.254-1.173 2.64.845 2.17-1.593 2.649.865 2.364-.604 2.591.502 2.157-1.592 2.46-.154 2.462-.165 2.521.022 2.313-.859 2.233-1.106 1.828-2.393 2.665.423 2.063-1.39 2.793.446 1.885-1.883 2.323-.767 2.657.018 1.532-2.637 2.24-.956 2.783.226 2.199-1.081 2.079-1.325 1.972-1.521 2.952.384 1.794-1.864 1.733-1.925 2.449-.627 1.772-1.808 2.466-.644 2.161-1.165 2.031-1.372 1.553-2.071 2.091-1.261 1.779-1.694 2.201-1.123 2.661-.57 1.76-1.731 1.299-2.262 1.454-2.042 3.108-.175 1.722-1.757.114-3.416 2.42-.902 1.713-1.685 1.747-1.656 1.527-1.953 3.165.227 1.564-1.894 1.31-2.507 2.35-.875 2.424-.678 2.618 1.334 2.576-1.851 2.415 1.232 1.349 2.285 1.381 1.95.9 2.212.93 2.204 1.195 2.079.76 2.277 1.011 2.164.234 2.461.744 2.238 1.175 2.103.491 2.308.879 2.242.308 2.36.877 2.426-2.326 2.11 1.004 2.64-2.428 1.536.836 3.464-3.447-.578-1.352 3.224-2.689-.911-2.4.083-2.41-.444-2.384 1.499-2.43-1.166-2.442-.155-2.149 2.206-2.425-.261-2.345.393-2.875-.635-1.974 1.667-1.233 2.829-2.567.32-2.885-.463-1.145 3.235-3.202-.964-1.285 2.671-1.94 1.387-3.036-.041-.909 2.735-1.617 1.774-1.786 1.599-2.277 1.208-.356 2.827-1.827 1.612-2.591 1.124-.295 2.721-1.44 1.936-.929 2.253-2.569 1.303-.122 2.712-.482 2.48-1.468 1.955-.683 2.36-1.556 1.924-2.74 1.383-.881 2.275-.386 2.495.626 2.927-2.99 1.349-.959 2.242z" fill="url(#SVGID_00000166655770233740579640000005679885655357077644_)"/><path d="m260.084 198.589 2.743 1.007 1.982-2.42 2.232-1.126 2.559.011 2.35-.733 2.027-1.62 2.48-.361 2.341-.76 2.317-.833 2.687-.078 1.875-1.801 2.722-.128 2.017-1.493 1.364-2.577 2.016-1.387 2.933.029 1.546-2.118 2.151-1.227 2.794-.453 1.212-2.454 1.765-1.74 1.321-2.109 1.982-1.496 2.468-1.133-.131-3.262 1.788-1.689 1.528-1.9 1.197-2.138.937-2.306 2.274-1.4 1.553-1.899.951-2.283 1.054-2.206.716-2.39 1.398-1.988 1.475-1.956.84-2.29 1.604-1.918 1.379-2.055-.129-2.125-.187-.141-1.314-2.651-3.228.826-2.015-1.395-1.926-1.683-2.622-.004-2.297-.769-2.178-1.338-2.577.413-2.33-.866-2.441-.166-2.458.348-2.431-.553-2.528-1.568-2.517.052-2.226 2.515-2.542-.487-2.711-1.089-2.053 2.359-2.265 1.059-2.557-.087-2.371.662-2.075 1.559-2.489.288-2.363.688-2.34.764-2.689-.002-1.928 1.744-2.725.046-2.06 1.434-1.44 2.535-2.057 1.325-2.931-.116-1.608 2.071-2.186 1.162-2.808.369-1.284 2.417-1.816 1.686-1.384 2.069-2.025 1.437-2.501 1.058.033 3.265-1.837 1.635-1.584 1.853-1.26 2.101-1.006 2.277-2.314 1.331-1.61 1.852-1.018 2.254-1.12 2.174-.787 2.367-1.458 1.946-1.531 1.91-.909 2.265-1.66 1.868-1.44 2.013.084 2.708-.657 1.416.414-.014 1.994 1.414 1.393 2.61 3.201-.922 2.056 1.334 1.976 1.625 2.62-.074 2.319.699 2.218 1.273 2.562-.49 2.356.797 2.445.092 2.446-.421 2.446.48 2.574 1.492 2.514-.128 2.151-2.58z" fill="url(#SVGID_00000044149611170967910000000017492141020109988001_)"/><path d="m65.975 152.577 1.947 1.377 3.036-.055.923 2.73 1.626 1.766 1.794 1.591 2.283 1.196.369 2.826 1.836 1.603 2.596 1.111v.001c.001.003 1.199 2.857 3.63 7.363l1.643.823.117 2.336c1.721 2.995 3.867 6.462 6.431 10.16l.567.283.471 1.198c7.721 10.837 18.986 23.376 33.987 32.037 24.964 14.413 58.045 21.757 92.906 22.308l2.07-.574 1.221-2.251.578-2.721 1.669-1.769 2.955-.911-.084-3.007 2.447-1.411 1.62-1.98.028-2.74.309-2.515.766-2.304 1.693-2.078.787-2.386-1.42-2.693 1.484-2.314-.536-2.466-.682-2.385.218-2.457.937-2.701-.635-2.447-2.42-1.796-.255-2.526-1.868-1.799-1.561-1.87-.763-2.364-1.244-2.096-1.082-2.241-1.867-1.587-1.074-2.411-2.824-.466-1.725-1.697-2.161-1.116-1.25-2.521-2.076-1.315-2.072-1.329-3.16.824-2.158-1.041-2.078-1.231-2.252-.85-1.746-2.164-2.307-.785-2.749.507-1.666-2.673-2.587.09-2.608.246-2.389-.444-1.819-2.548-2.283-.921-2.885 1.489-1.925-2.367-2.46-.182-2.579.372-2.4-.402-2.287-.944-2.067-2.046-2.888 1.998-2.217-1.336h-2.48l-2.019-2.419-2.665.98-2.212-1.415-2.26-1.161-2.636.858-2.178-1.582-2.645.878-2.367-.592-2.588.516-2.165-1.582-2.461-.142-2.462-.152-2.521.035-2.317-.848-2.239-1.095-1.84-2.383-2.663.436-2.07-1.38-2.79.461-1.895-1.874-2.327-.756-2.658.031-1.545-2.629-2.245-.945-2.781.24-2.204-1.07-2.086-1.315-1.98-1.511-2.949.398-1.804-1.856-1.743-1.916-2.452-.615-1.78-1.799-2.469-.631-2.166-1.155-2.038-1.362-1.563-2.063-2.098-1.251-1.787-1.685-2.207-1.112-2.663-.557-1.769-1.722-1.311-2.255-1.463-2.035-3.109-.159-1.73-1.749-.131-3.416-2.424-.889-1.722-1.676-1.755-1.647-1.536-1.946-3.164.243-1.574-1.887-1.322-2.5-2.355-.864-2.427-.666-2.611 1.347-2.585-1.839-2.409 1.244-1.338 2.292-1.371 1.957-.889 2.217-.919 2.208-1.184 2.085-.749 2.28-1.001 2.17-.222 2.462-.732 2.241-1.165 2.109-.48 2.31-.868 2.246-.297 2.362-.864 2.43 2.336 2.098-.991 2.645 2.435 1.524-.818 3.468 3.444-.595 1.368 3.217 2.685-.924 2.4.071 2.407-.457 2.392 1.487 2.424-1.178 2.441-.167 2.16 2.196 2.423-.273 2.347.381 2.871-.649 1.982 1.656 1.247 2.823 2.569.307 2.882-.477 1.162 3.23 3.198-.98z" fill="url(#SVGID_00000027564629913536766180000002345661467236818602_)"/><path d="m197.193 241.618c8.151.936 16.493 1.477 24.943 1.611l2.07-.574 1.221-2.251.578-2.721 1.669-1.769 2.955-.911-.084-3.007 2.447-1.411 1.62-1.98.028-2.74.309-2.515.766-2.304 1.693-2.078.787-2.386-1.42-2.693 1.484-2.314-.536-2.466-.682-2.385.218-2.457.937-2.701-.635-2.447-2.42-1.796-.255-2.526-1.868-1.799-1.561-1.87-.763-2.364-.056-.094-.307.923-1.457 1.945-1.532 1.91-.909 2.264-1.66 1.869-1.44 2.013.084 2.708-1.026 2.212-3.029 1.259.539 2.944-.461 2.482-.949 2.248-2.779 1.3-1.613 1.877-.753 2.338-1.526 1.91-.556 2.465-.203 2.707-2.607 1.226-.996 2.224-1.498 1.892-.376 2.711-2.623 1.046-1.875 1.557-.439 2.816-2.312 1.139z" fill="url(#SVGID_00000152236633425633273110000005908510023826576824_)"/><path d="m280.106 127.233 1.163 2.185 1.4 2.071.603 2.364 1.268 2.095 1.189 2.12.469 2.451.825 2.301.713 2.369 1.353 2.047 2.119 1.623.698 2.39.973 2.249 1.327 2.045 1.607 1.862-.462 3.232 2.34 1.378 1.819 1.689 1.1 2.233 1.579 1.911.955 2.565 2.735.734 2.015 1.439 1.322 2.264 2.921.271 1.865 1.584 1.094 2.702 1.855 1.691 2.694.404 1.683 1.982 2.665.351 2.22 1.065 2.251.993 2.431.612 1.852 1.818 2.263.968 2.547.25 2.106 1.347 1.725 2.609 2.831-.724 2.583-.149 1.877 2.786 2.488.382 2.713-1.222 2.482-.229 2.391.668 2.442.156 2.424-.553 2.499.749 2.335-1.041 2.379-.46 2.599.34 2.131-1.415 2.181-1.118 3.091 1.243 1.651-2.456 2.127-1.203 2.962.408 1.224-2.882 2.68-.273 1.92-1.562 2.818-.289.941-2.866 2.8-.463 1.455-2.109.865-2.643 1.848-1.58 3.035-.591.237-2.999 2.584-1.142 1.821-1.796.32-2.721.576-2.468 1.006-2.209 1.905-1.885 1.037-2.288-1.125-2.83 1.723-2.143-.27-2.509-.424-2.444.479-2.42 1.219-2.586-.37-2.5-2.215-2.044.016-2.539-1.665-1.989-1.353-2.026-.506-2.431-1.014-2.217-.837-2.344-1.688-1.776-.81-2.512-2.759-.765-1.534-1.872-2.029-1.341-.974-2.64-1.924-1.528-1.918-1.543-3.23.483-2.035-1.265-1.935-1.446-2.149-1.085-1.505-2.337-2.209-1.027-2.788.211-1.371-2.835-2.581-.187-2.62-.034-2.328-.697-1.537-2.727-2.172-1.16-3.028 1.173-1.662-2.559-2.426-.444-2.604.095-2.343-.656-2.173-1.182-1.837-2.255-3.085 1.678-2.062-1.564-2.466-.265-1.749-2.62-2.754.69-2.049-1.644-2.123-1.395-2.712.572-1.997-1.806-2.723.591-2.291-.841-2.628.236-1.984-1.804-2.432-.403-2.432-.414-2.51-.234-2.214-1.09-2.109-1.328-1.575-2.566-2.694.149-1.911-1.593-2.824.161-1.684-2.065-2.232-1-2.646-.253-1.256-2.779-2.131-1.178-2.791-.058-2.078-1.299-1.933-1.53-1.808-1.713-2.975.081-1.595-2.037-1.529-2.091-2.373-.873-1.578-1.979-2.388-.891-2.031-1.379-1.881-1.572-1.334-2.217-1.952-1.468-1.598-1.866-2.075-1.341-2.589-.838-1.575-1.901-1.062-2.382-1.239-2.179-3.074-.49-1.534-1.923.233-3.411-2.315-1.143-1.533-1.85-1.57-1.825-1.319-2.099-3.172-.095-1.364-2.045-1.047-2.626-2.25-1.11-2.342-.921-2.741 1.061-2.374-2.104-2.527.981-1.575 2.135-1.572 1.8-1.12 2.109-1.15 2.098-1.4 1.947-.987 2.187-1.227 2.051-.483 2.424-.967 2.151-1.383 1.972-.723 2.246-1.103 2.141-.547 2.317-1.118 2.324 2.099 2.335-1.268 2.525 2.259 1.774-1.184 3.362 3.489-.224 1.017 3.344 2.768-.632 2.379.326 2.442-.197 2.22 1.734 2.536-.913 2.445.094 1.913 2.414 2.439-.013 2.293.629 2.924-.339 1.794 1.858.939 2.94 2.522.58 2.916-.167.811 3.335 3.284-.634 1.006 2.788 1.789 1.577 3.024.269.627 2.812 1.428 1.929 1.614 1.773 2.142 1.433.066 2.849 1.655 1.79 2.463 1.381.016 2.737 1.236 2.072.695 2.336 2.423 1.558-.154 2.71.227 2.517 1.262 2.094.439 2.417 1.352 2.072 2.585 1.655.645 2.352.131 2.522-.921 2.848 2.837 1.646.727 2.328z" fill="url(#SVGID_00000138567723852378512850000005825345829797011860_)"/><path d="m390.467 182.789-.727-2.405-1.64-2.12-.708-2.322-.247-2.522.041-2.739-1.57-2.02-2.411-1.471.159-3.004-2.932-.984-1.624-1.81-.51-2.734-1.165-2.281-2.716-.827-.556-2.965-2.756-.657-1.698-1.8-2.621-.624-.835-3.017-2.989.016-1.951-1.473-1.314-2.651-3.228.826-2.014-1.395-1.928-1.683-2.62-.004-2.298-.768-2.178-1.339-2.576.414-2.331-.867-2.441-.166-2.458.348-2.43-.553-2.529-1.567-2.517.052-2.226 2.515-2.541-.488-2.712-1.089-2.053 2.36-2.265 1.059-2.557-.088-2.371.663-2.075 1.559-2.49.287-2.362.689-2.341.764-2.688-.002-1.928 1.743-2.725.047-2.06 1.433-1.355 2.386.506 1.734.973 2.249 1.327 2.045 1.607 1.862-.462 3.232 2.34 1.377 1.819 1.69 1.1 2.233 1.579 1.911.956 2.565 2.734.734 2.015 1.439 1.322 2.264 2.921.271 1.865 1.584 1.094 2.702 1.855 1.691 2.694.404 1.682 1.982 2.666.351 2.22 1.065 2.251.993 2.431.612 1.852 1.818 2.263.968 2.547.249 2.106 1.348 1.725 2.609 2.831-.724 2.583-.149 1.877 2.785 2.488.383 2.713-1.222 2.482-.229 2.391.668 2.442.156 2.424-.553 2.499.749 2.336-1.041 2.378-.46 2.599.34 2.131-1.415 2.181-1.118 3.091 1.243 1.651-2.456 2.127-1.203 2.962.408 1.224-2.882.933-.095-.751-1.236z" fill="url(#SVGID_00000087372814792623043660000010112890655943461821_)"/><path d="m400.473 465.261 2.429-.475 2.389-.734 2.437.112 2.374-.601 2.375-.518 2.48.266 2.443-.116 2.473.008 2.353-.695 2.171-1.554 2.489.03 2.435-.275 2.344-.672 2.249-.993 2.957 1.385 2.001-1.836 2.147-1.247 2.457-.4 2.288-.953 2.732-.165 1.5-2.401 1.965-1.507 2.552-.604 1.11-2.714 2.06-1.322 2.904-.258 2.159-1.28 1.173-2.46 2.387-1.03 1.113-2.447 1.666-1.813 1.608-1.863 1.294-2.146 2.28-1.241 1.586-1.882.982-2.363 1.903-1.622 2.999-.888.134-2.919.611-2.514 3.212-.982 1.092-2.269-.377-2.95.506-2.442 1.336-2.091.863-2.29.178-2.48 1.445-2.172-.314-2.538.255-2.409 1.083-2.387-.731-2.451-.433-2.412 2.091-2.594-1.867-2.295-.53-2.387 1.255-2.713-2.399-2.012.521-2.643-.934-2.292.547-2.78-2.468-1.737.375-2.813-1.592-2.007-2.276-1.598-.972-2.23.321-3.075-2.799-1.102-.339-2.804-1.186-2.267-2.509-1.1-2.192-1.271-1.819-1.607-1.248-2.372-1.886-1.659-3.034.249-1.547-2.273-2.478-.474-2.462-.308-2.175-1.164-2.117-1.921-2.5-.376-2.602 1.522-2.423-.756-2.388 1.012-2.333.702-2.473-.225-2.417.323-2.485.117-2.192 1.095-2.639.042-1.537 2.415-2.238.922-1.875 1.549-2.809.161-2.023 1.394-2.035 1.385-.482 3.229-1.804 1.578-1.947 1.429-1.665 1.739-2.675.756-1.626 1.814-.613 2.728-3.111.484-.933 2.414-.796 2.496-1.346 2.023-3.058.674-1.743 1.739.238 3.238-2.933.843-1.132 2.191-.669 2.518-1.311 2.05-1.766 1.733-2.692 1.1.704 3.44-2.098 1.515-.973 2.282-3.016.908-.144 2.835-2.17 1.48-1.954 1.624-.245 2.761-2.309 1.382-.231 2.778-1.472 1.945-.541 2.583-2.305 1.371-1.095 2.209-1.106 2.205-.957 2.333-1.689 1.798-1.886 1.63-2.914.758-.643 2.62-2.081 1.363-.671 2.747-2.466 1.008-1.608 1.844-1.014 2.457-3.024.39-1.75 1.694-.87 2.653-1.849 1.608-2.027 1.403-2.167 1.229-.79 2.869-2.414.931-2.446.852-1.528 2.014-2.353.932-1.549 2.024-1.912 1.54-2.052 1.341-2.511.629-1.973 1.439-2.251.983-1.889 1.594-1.556 2.231-2.278.952-2.589.321-2.446.548-1.366 2.798-2.287.906-3.194-1.219-1.768 1.881-2.218.927-2.203.968-2.393.649-1.017 3.006-2.353.708-2.818.235-1.718 1.828-1.565 1.971.215 2.931-2.705 1.657.2 2.704 1.583 2.129 1.263 2.029 1.69 1.687 1.671 1.712 1.454 1.907 1.804 1.583 1.603 1.771 2.178 1.17 1.774 1.553 1.483 1.899 1.937 1.347 1.726 1.679 2.056 1.199 1.897 1.748 2.846-1.326 2.045 1.949 2.357-1.642 2.869 2.113.804-3.402 3.495.004.203-2.832 1.007-2.181.524-2.393 2.307-1.617-.133-2.692.803-2.311 2.867-1.126.699-2.336 1.272-2.01.529-2.896 2.301-1.173 3.086-.04 1.29-2.243.691-2.838 3.427.198.353-3.326 2.959-.149 2.031-1.25 1.14-2.814 2.873.221 2.262-.803 2.167-1.026 1.996-1.631 2.743.769 2.195-1.06 2.04-1.953 2.623.783 2.342-.577 2.437.017 2.198-1.863 2.547.938 2.473.518 2.371-.596 2.44.285 2.377-.688 2.336-1.989 2.439.069 2.45.611 2.455 1.712 2.403-2.233 2.438-.016z" fill="url(#SVGID_00000059994131379581196600000017652658302546503095_)"/><g><path d="m292.059 500.971-1.794-1.046.35.386 1.745.937z" fill="url(#SVGID_00000130642773849720452360000006055236592159720107_)"/></g><path d="m265.837 240.428.659-.223.751.029c2.857-.422 5.709-.878 8.551-1.388l.35-.243.418.094c27.365-4.991 53.827-14.042 76.356-27.049 9.34-5.392 17.498-11.176 24.472-17.224l.354-1.236-.869-2.723-.157-2.461.741-2.368.597-2.452-1.426-2.35 1.486-2.657-.727-2.405-1.64-2.119-.708-2.322-.246-2.522.041-2.739-1.57-2.02-2.411-1.472.159-3.004-2.931-.984-1.625-1.809-.51-2.734-1.165-2.281-2.715-.827-.556-2.966-2.756-.656-1.698-1.8-2.621-.623-.835-3.018-2.989.016-1.951-1.473-1.314-2.651-3.228.827-2.015-1.395-1.927-1.683-2.621-.005-2.298-.768-2.178-1.338-2.576.413-2.33-.867-2.442-.166-2.458.348-2.431-.553-2.529-1.568-2.517.052-2.226 2.515-2.541-.488-2.711-1.089-2.053 2.36-2.265 1.059-2.557-.087-2.371.662-2.075 1.559-2.49.287-2.362.689-2.341.764-2.688-.002-1.928 1.744-2.724.047-2.061 1.433-1.439 2.535-2.057 1.325-2.931-.116-1.608 2.071-2.187 1.162-2.807.369-1.284 2.417-1.816 1.686-1.384 2.069-2.025 1.436-2.501 1.058.033 3.265-1.837 1.635-1.584 1.853-1.26 2.102-1.005 2.277-2.315 1.331-1.609 1.852-1.019 2.254-1.12 2.174-.787 2.368-1.457 1.946-1.532 1.91-.909 2.264-1.66 1.869-1.44 2.013.084 2.708-1.026 2.212-3.029 1.259.539 2.944-.461 2.482-.949 2.248-2.779 1.3-1.613 1.877-.753 2.338-1.526 1.91-.556 2.465-.203 2.707-2.607 1.226-.995 2.224-1.498 1.892-.376 2.711-2.623 1.046-1.875 1.557-.439 2.815-2.312 1.139-1.833 1.545-1.669 1.725-.991 2.706-3.033-.131-1.98 1.328-1.364 2.631-3.172-1.059-.915 2.357c21.55 2.32 44.402 1.835 66.922-1.377z" fill="url(#SVGID_00000093135139750751750580000007863950415971214993_)"/></g></svg>