<?xml version="1.0" encoding="iso-8859-1"?>
<!-- Generator: Adobe Illustrator 19.0.0, SVG Export Plug-In . SVG Version: 6.00 Build 0)  -->
<svg version="1.1" id="Capa_1" xmlns="http://www.w3.org/2000/svg" xmlns:xlink="http://www.w3.org/1999/xlink" x="0px" y="0px"
	 viewBox="0 0 512.005 512.005" style="enable-background:new 0 0 512.005 512.005;" xml:space="preserve">
<path style="fill:#FFD94F;" d="M449.06,459.003H62.94c-34.761,0-62.94-28.179-62.94-62.94V116.299
	c0-34.761,28.179-62.94,62.94-62.94h386.12c34.761,0,62.94,28.179,62.94,62.94v279.763C512,430.824,483.821,459.003,449.06,459.003z
	"/>
<path style="fill:#FFC30A;" d="M449.041,53.36h-30.905c34.771,0,62.959,28.171,62.959,62.921v279.801
	c0,34.75-28.188,62.921-62.959,62.921h30.905c34.771,0,62.959-28.171,62.959-62.921V116.281C512,81.531,483.812,53.36,449.041,53.36
	z"/>
<rect y="168.493" style="fill:#F14D3F;" width="512" height="30.886"/>
<rect x="481.1" y="168.493" style="fill:#D53B36;" width="30.905" height="30.886"/>
<rect x="355.93" y="53.003" style="fill:#F14D3F;" width="30.905" height="406"/>
<path style="fill:#FFAF25;" d="M151.032,340.426h-44.363c-8.219,0-14.882-6.663-14.882-14.882v-44.725
	c0-8.019,6.501-14.52,14.52-14.52h44.725c8.219,0,14.882,6.663,14.882,14.882v44.363
	C165.914,333.763,159.251,340.426,151.032,340.426z"/>
<g>
	<path style="fill:#FF8D00;" d="M165.643,375.724H92.06c-4.143,0-7.5-3.358-7.5-7.5s3.357-7.5,7.5-7.5h73.583
		c4.143,0,7.5,3.358,7.5,7.5S169.785,375.724,165.643,375.724z"/>
	<path style="fill:#FF8D00;" d="M165.914,402.492H91.787c-4.143,0-7.5-3.358-7.5-7.5s3.357-7.5,7.5-7.5h74.127
		c4.143,0,7.5,3.358,7.5,7.5S170.057,402.492,165.914,402.492z"/>
</g>
<g>
	<path style="fill:#D53B36;" d="M354.901,171.46c0,0-51.178-72.163-75.518-26.897s75.518,44.793,75.518,44.793V171.46z"/>
	<path style="fill:#D53B36;" d="M387.718,171.46c0,0,51.178-72.163,75.518-26.897s-75.518,44.793-75.518,44.793V171.46z"/>
	<path style="fill:#D53B36;" d="M371.159,203.82c0.332-0.002-26.882,49.511-35.531,65.23c-1.296,2.355-4.496,2.781-6.369,0.853
		l-26.289-27.052c-1.538-1.582-1.504-4.111,0.076-5.652l52.237-50.932L371.159,203.82z"/>
	<path style="fill:#D53B36;" d="M371.293,203.82c-0.332-0.002,26.882,49.511,35.531,65.23c1.296,2.355,4.496,2.781,6.369,0.853
		l26.289-27.052c1.538-1.582,1.504-4.111-0.076-5.652l-52.237-50.932L371.293,203.82z"/>
</g>
<g>
	<path style="fill:#B22828;" d="M350.712,184.917c-1.197,0-2.412-0.288-3.541-0.894c-5.924-3.18-23.045-11.952-31.019-14.321
		c-3.971-1.18-6.233-5.355-5.054-9.326c1.18-3.97,5.359-6.232,9.325-5.053c11.075,3.291,32.918,14.988,33.843,15.484
		c3.649,1.959,5.02,6.506,3.06,10.155C355.974,183.482,353.386,184.917,350.712,184.917z"/>
	<path style="fill:#B22828;" d="M391.907,184.917c-2.674,0-5.262-1.433-6.614-3.954c-1.96-3.649-0.59-8.196,3.06-10.155
		c0.925-0.496,22.768-12.194,33.843-15.484c3.97-1.177,8.146,1.083,9.325,5.053c1.18,3.971-1.083,8.146-5.054,9.326
		c-7.974,2.369-25.095,11.141-31.019,14.321C394.319,184.629,393.104,184.917,391.907,184.917z"/>
</g>
<path style="fill:#C63030;" d="M379.781,210.215h-16.942c-8.115,0-14.694-6.579-14.694-14.694v-26.208
	c0-8.115,6.579-14.694,14.694-14.694h16.942c8.115,0,14.694,6.579,14.694,14.694v26.208
	C394.474,203.635,387.896,210.215,379.781,210.215z"/>
<g>
</g>
<g>
</g>
<g>
</g>
<g>
</g>
<g>
</g>
<g>
</g>
<g>
</g>
<g>
</g>
<g>
</g>
<g>
</g>
<g>
</g>
<g>
</g>
<g>
</g>
<g>
</g>
<g>
</g>
</svg>
