<svg id="Layer_1" height="512" viewBox="0 0 512 512" width="512" xmlns="http://www.w3.org/2000/svg" data-name="Layer 1"><path d="m372.1 0h-232.2a25.378 25.378 0 0 0 -25.378 25.378v461.243a25.379 25.379 0 0 0 25.378 25.379h232.2a25.38 25.38 0 0 0 25.379-25.379v-461.242a25.379 25.379 0 0 0 -25.379-25.379z" fill="#ff5364"/><path d="m206.719 46.9a8.016 8.016 0 0 1 0-16.032h98.562a8.016 8.016 0 0 1 0 16.032z" fill="#6bddb3"/><path d="m275.981 473.115a8.016 8.016 0 0 1 -8.016 8.016h-23.93a8.016 8.016 0 1 1 0-16.032h23.93a8.016 8.016 0 0 1 8.016 8.016z" fill="#6bddb3"/><g fill="#fcee86"><path d="m238.994 261.472h-33.846a10.124 10.124 0 0 0 -10.113 10.114v33.845a10.124 10.124 0 0 0 10.113 10.114h33.846a10.126 10.126 0 0 0 10.114-10.114v-33.845a10.126 10.126 0 0 0 -10.114-10.114zm-5.918 38.041h-22.009v-22.013h22.009z"/><path d="m273.005 249.743h33.846a10.124 10.124 0 0 0 10.114-10.112v-33.846a10.125 10.125 0 0 0 -10.114-10.114h-33.846a10.125 10.125 0 0 0 -10.113 10.114v33.846a10.124 10.124 0 0 0 10.113 10.112zm5.919-38.041h22.009v22.01h-22.009z"/><path d="m270.908 277.5h30.025v11a8.016 8.016 0 1 0 16.032 0v-16.37a10.671 10.671 0 0 0 -10.659-10.658h-35.4a8.016 8.016 0 1 0 0 16.031z"/><path d="m238.994 195.671h-33.846a10.124 10.124 0 0 0 -10.113 10.114v33.846a10.123 10.123 0 0 0 10.113 10.112h33.846a10.125 10.125 0 0 0 10.114-10.112v-33.846a10.126 10.126 0 0 0 -10.114-10.114zm-5.918 38.041h-22.009v-22.012h22.009z"/><path d="m288.385 299.513h-9.461v-3.62a8.016 8.016 0 0 0 -16.032 0v8.994a10.671 10.671 0 0 0 10.658 10.658h14.835a8.016 8.016 0 0 0 0-16.032z"/></g><path d="m172.721 211.7a8.015 8.015 0 0 0 8.015-8.015v-23.341h22.315a8.016 8.016 0 1 0 0-16.031h-27.688a10.67 10.67 0 0 0 -10.658 10.658v28.716a8.015 8.015 0 0 0 8.016 8.013z" fill="#285680"/><path d="m203.051 330.871h-22.315v-23.342a8.016 8.016 0 1 0 -16.031 0v28.716a10.67 10.67 0 0 0 10.658 10.655h27.688a8.016 8.016 0 0 0 0-16.032z" fill="#285680"/><path d="m339.279 299.513a8.016 8.016 0 0 0 -8.015 8.016v23.342h-22.314a8.016 8.016 0 1 0 0 16.032h27.687a10.67 10.67 0 0 0 10.663-10.658v-28.716a8.016 8.016 0 0 0 -8.021-8.016z" fill="#285680"/><path d="m336.637 164.313h-27.687a8.016 8.016 0 1 0 0 16.031h22.314v23.343a8.016 8.016 0 0 0 16.031 0v-28.716a10.67 10.67 0 0 0 -10.658-10.658z" fill="#285680"/></svg>