<svg id="Layer_1" enable-background="new 0 0 256 256" viewBox="0 0 256 256" xmlns="http://www.w3.org/2000/svg" xmlns:xlink="http://www.w3.org/1999/xlink"><linearGradient id="lg1"><stop offset="0" stop-color="#fcb64e"/><stop offset="1" stop-color="#f78d1e"/></linearGradient><linearGradient id="SVGID_1_" gradientUnits="userSpaceOnUse" x1="79.69" x2="176.31" xlink:href="#lg1" y1="74.014" y2="74.014"/><linearGradient id="SVGID_2_" gradientUnits="userSpaceOnUse" x1="70.11" x2="185.89" y1="100.24" y2="100.24"><stop offset="0" stop-color="#fff3e1"/><stop offset="1" stop-color="#fecc81"/></linearGradient><linearGradient id="lg2"><stop offset="0" stop-color="#fafafa"/><stop offset="1" stop-color="#efeeee"/></linearGradient><linearGradient id="SVGID_3_" gradientUnits="userSpaceOnUse" x1="121" x2="157.281" xlink:href="#lg2" y1="44.409" y2="44.409"/><linearGradient id="SVGID_4_" gradientUnits="userSpaceOnUse" x1="121" x2="157.281" xlink:href="#lg2" y1="26.137" y2="26.137"/><linearGradient id="SVGID_5_" gradientUnits="userSpaceOnUse" x1="80.05" x2="175.95" xlink:href="#lg1" y1="180.5" y2="180.5"/><g/><path d="m176.31 70.919v10.19h-96.62v-10.19c0-2.2 1.8-4 4-4h88.62c2.2 0 4 1.8 4 4z" fill="url(#SVGID_1_)"/><path d="m185.89 93.109v14.26c0 2.2-1.8 4-4 4h-107.78c-2.2 0-4-1.8-4-4v-14.26c0-2.2 1.8-4 4-4h107.78c2.2 0 4 1.801 4 4z" fill="url(#SVGID_2_)"/><g><path d="m132 33.899v25.02h-8v-25.02c0-2.21 1.79-4 4-4s4 1.791 4 4z" fill="url(#SVGID_3_)"/></g><g><path d="m128.003 37.903c-1.333 0-2.635-.665-3.394-1.878-1.172-1.872-.605-4.34 1.268-5.513l24.805-15.532c1.874-1.173 4.341-.605 5.514 1.268 1.172 1.872.604 4.34-1.268 5.513l-24.806 15.532c-.659.413-1.393.61-2.119.61z" fill="url(#SVGID_4_)"/></g><path d="m80.05 119.37h95.9l-3.811 118.26c-.069 2.199-1.92 4-4.12 4h-80.029c-2.2 0-4.05-1.79-4.13-3.99v-.01z" fill="url(#SVGID_5_)"/></svg>