<svg id="Glitter" viewBox="0 0 64 64" xmlns="http://www.w3.org/2000/svg"><path d="m44 34c0-.42-.26-.79-.64-.93l-5.57-2.12c-5.06-1.92-9-6.08-10.83-11.41l-2.01-5.86c-.14-.4-.52-.68-.95-.68s-.81.27-.95.68l-2.01 5.86c-1.83 5.33-5.78 9.49-10.83 11.41l-5.57 2.12c-.39.15-.64.52-.64.93s.26.79.64.93l5.57 2.12c5.06 1.92 9 6.08 10.83 11.41l2.01 5.86c.14.4.52.68.95.68s.81-.27.95-.68l2.01-5.86c1.83-5.33 5.78-9.49 10.83-11.41l5.57-2.12c.39-.15.64-.52.64-.93z" fill="#f2a74a"/><path d="m38.66 15.94 2.93 1.06c2.53.91 4.5 2.88 5.41 5.41l1.06 2.93c.14.4.52.66.94.66s.8-.26.94-.66l1.06-2.93c.91-2.53 2.88-4.5 5.41-5.41l2.93-1.06c.4-.14.66-.52.66-.94s-.26-.8-.66-.94l-2.93-1.06c-2.53-.91-4.5-2.88-5.41-5.41l-1.06-2.93c-.14-.4-.52-.66-.94-.66s-.8.26-.94.66l-1.06 2.93c-.91 2.53-2.88 4.5-5.41 5.41l-2.93 1.06c-.4.14-.66.52-.66.94s.26.8.66.94z" fill="#f16937"/><path d="m59.34 49.06-2.64-.95c-2.25-.81-4-2.56-4.81-4.81l-.95-2.64c-.14-.4-.52-.66-.94-.66s-.8.26-.94.66l-.95 2.64c-.81 2.25-2.56 4-4.81 4.81l-2.64.95c-.4.14-.66.52-.66.94s.26.8.66.94l2.64.95c2.25.81 4 2.56 4.81 4.81l.95 2.64c.14.4.52.66.94.66s.8-.26.94-.66l.95-2.64c.81-2.25 2.56-4 4.81-4.81l2.64-.95c.4-.14.66-.52.66-.94s-.26-.8-.66-.94z" fill="#f2a74a"/></svg>