<svg id="Layer_1" enable-background="new 0 0 512 512" height="512" viewBox="0 0 512 512" width="512" xmlns="http://www.w3.org/2000/svg"><g id="XMLID_1_"><g id="XMLID_3099_"><path id="XMLID_1160_" d="m397 507h-269v-301l50-201h269" fill="#ffcb5d"/><path id="XMLID_1522_" d="m138.5 166-10 40v301h118.2l36.9-236.8c2.9-18.4 0-37.2-8.3-53.9-15.2-30.8-46.6-50.3-80.9-50.3z" fill="#ffb30f"/><path id="XMLID_1161_" d="m497 206v301h-100v-301l50-201z" fill="#ffb30f"/><path id="XMLID_1518_" d="m497 206v301h-50v-502z" fill="#ffcb5d"/><path id="XMLID_1159_" d="m397 507 50-63.5 50 63.5" fill="#ffb30f"/><path id="XMLID_1157_" d="m397.5 65h-269l50-60h269z" fill="#ffe3a9"/><path id="XMLID_1155_" d="m208.5 507h-160l-20-250h200z" fill="#9cd3fc"/><path id="XMLID_1154_" d="m14.5 227h228v30h-228z" fill="#504c43"/><path id="XMLID_1476_" d="m228.5 257-20 250h-49l16.5-205.9c1-13-9.2-24.1-22.2-24.1h-123.7l-1.6-20z" fill="#69bdfb"/><path id="XMLID_1153_" d="m28.5 197h200v30h-200z" fill="#504c43"/><path id="XMLID_1411_" d="m193.5 227h49v30h-49z" fill="#35322b"/><path id="XMLID_1410_" d="m179.5 197h49v30h-49z" fill="#35322b"/><path id="XMLID_1152_" d="m214.3 431.6 7.4-100.1-188 1 8.6 99.9z" fill="#e36415"/><path id="XMLID_1442_" d="m165 431.8 49-.2 7.7-100.1-48.7.3z" fill="#b24e10"/></g></g></svg>